<svg width="50" height="50" viewBox="0 0 50 50" fill="none" xmlns="http://www.w3.org/2000/svg">
<path d="M44.4451 35.5347C45.016 33.9064 45.3091 32.1938 45.3123 30.4683C45.3049 27.5702 44.4935 24.731 42.9684 22.2666C41.4434 19.8023 39.2644 17.8094 36.674 16.5097C36.5094 14.7708 35.7021 13.1557 34.4101 11.9802C33.118 10.8047 31.4341 10.1533 29.6873 10.1533C27.9406 10.1533 26.2566 10.8047 24.9645 11.9802C23.6725 13.1557 22.8652 14.7708 22.7006 16.5097C20.1103 17.8094 17.9314 19.8024 16.4063 22.2667C14.8812 24.7311 14.0698 27.5703 14.0623 30.4683C14.0655 32.194 14.3587 33.907 14.9295 35.5355C13.8166 35.9123 12.816 36.5621 12.0191 37.4255C11.2222 38.2889 10.6546 39.3383 10.368 40.4777C10.0814 41.6172 10.0851 42.8103 10.3788 43.9479C10.6724 45.0856 11.2466 46.1314 12.0488 46.9899C12.851 47.8483 13.8556 48.4919 14.9708 48.8617C16.086 49.2316 17.2761 49.316 18.4324 49.1071C19.5886 48.8983 20.674 48.4028 21.5892 47.6661C22.5045 46.9295 23.2205 45.9751 23.6717 44.8902C25.5778 45.6846 27.6223 46.0937 29.6873 46.0937C31.7523 46.0937 33.7969 45.6846 35.7029 44.8902C36.1534 45.9768 36.8693 46.9329 37.7851 47.6712C38.7008 48.4094 39.7871 48.9062 40.9445 49.1159C42.1019 49.3256 43.2934 49.2416 44.4099 48.8715C45.5265 48.5015 46.5323 47.8573 47.3354 46.9979C48.1385 46.1384 48.7132 45.0913 49.0068 43.9523C49.3003 42.8132 49.3035 41.6188 49.0159 40.4782C48.7283 39.3377 48.1592 38.2875 47.3607 37.4238C46.5621 36.5602 45.5597 35.9107 44.4451 35.5347ZM42.9279 35.1933H42.9201C42.6766 35.1684 42.4321 35.1559 42.1873 35.1558C40.3231 35.1579 38.5359 35.8994 37.2178 37.2175C35.8996 38.5357 35.1581 40.3229 35.1561 42.1871C35.1647 42.5865 35.1988 42.985 35.2584 43.3801C33.4983 44.1358 31.6028 44.5255 29.6873 44.5255C27.7718 44.5255 25.8763 44.1358 24.1162 43.3801C24.1758 42.985 24.21 42.5865 24.2186 42.1871C24.2165 40.3229 23.475 38.5357 22.1569 37.2175C20.8387 35.8994 19.0515 35.1579 17.1873 35.1558C16.9423 35.1556 16.6975 35.1679 16.4537 35.1926H16.4467C15.9004 33.6775 15.6223 32.0789 15.6248 30.4683C15.6301 27.9862 16.2902 25.5495 17.5384 23.4041C18.7867 21.2588 20.5789 19.4807 22.7342 18.2496C22.9878 19.9113 23.8283 21.4272 25.1035 22.5226C26.3786 23.6179 28.004 24.2201 29.685 24.2201C31.366 24.2201 32.9913 23.6179 34.2665 22.5226C35.5416 21.4272 36.3822 19.9113 36.6357 18.2496C38.7919 19.4801 40.585 21.2579 41.8342 23.4033C43.0833 25.5487 43.7441 27.9858 43.7498 30.4683C43.7524 32.0791 43.4743 33.678 42.9279 35.1933Z" fill="#F9BD33"/>
<path d="M16.3624 14.5861C16.2803 14.3958 16.1259 14.2459 15.9332 14.1694C15.7406 14.0929 15.5254 14.0961 15.3351 14.1783C15.1448 14.2604 14.9949 14.4148 14.9184 14.6075C14.8419 14.8001 14.8451 15.0153 14.9273 15.2056C15.3753 16.2374 16.1092 17.1195 17.0424 17.7476C17.9756 18.3757 19.0691 18.7236 20.1937 18.7501H20.4507C21.5721 18.7207 22.6618 18.3714 23.5913 17.7434C24.5209 17.1154 25.2516 16.2349 25.6976 15.2056C25.7798 15.0153 25.7829 14.8001 25.7065 14.6075C25.63 14.4148 25.4801 14.2604 25.2898 14.1783C25.0995 14.0961 24.8843 14.0929 24.6916 14.1694C24.499 14.2459 24.3446 14.3958 24.2624 14.5861C23.9377 15.3388 23.4051 15.9833 22.727 16.4441C22.049 16.9048 21.2537 17.1628 20.4343 17.1876H20.2148C19.3914 17.1667 18.5912 16.9106 17.9086 16.4496C17.226 15.9886 16.6895 15.342 16.3624 14.5861Z" fill="#4285F4"/>
<path d="M32.9906 16.2992C34.0699 15.7563 35.0158 14.9815 35.7607 14.0302C36.5055 13.079 37.0308 11.9748 37.299 10.7968C37.5672 9.61875 37.5717 8.39601 37.312 7.21607C37.0524 6.03613 36.5351 4.92817 35.7972 3.97153C35.0593 3.01488 34.1191 2.23319 33.0438 1.68243C31.9684 1.13167 30.7846 0.825446 29.5771 0.785689C28.3696 0.745932 27.1683 0.973622 26.059 1.45246C24.9498 1.9313 23.9602 2.64944 23.1609 3.55548C21.3034 2.9965 19.3224 2.9965 17.4648 3.55548C16.6653 2.64978 15.6754 1.93205 14.5661 1.45367C13.4567 0.975291 12.2553 0.748099 11.0478 0.788361C9.84041 0.828622 8.6568 1.13534 7.58176 1.68655C6.50673 2.23777 5.56686 3.01985 4.82944 3.9768C4.09202 4.93375 3.57529 6.0419 3.31625 7.22191C3.05722 8.40193 3.06227 9.62462 3.33106 10.8025C3.59984 11.9803 4.12571 13.0841 4.87102 14.0349C5.61633 14.9858 6.56263 15.76 7.64219 16.3024C5.63036 17.0542 3.89572 18.4018 2.66982 20.1652C1.44391 21.9287 0.785076 24.0242 0.78125 26.1719V31.25C0.78125 31.4572 0.86356 31.6559 1.01007 31.8024C1.15659 31.949 1.3553 32.0313 1.5625 32.0313H7.23906C7.1017 32.805 7.03217 33.5892 7.03125 34.375V39.0625C7.03125 39.2697 7.11356 39.4684 7.26007 39.6149C7.40659 39.7615 7.6053 39.8438 7.8125 39.8438H32.8125C33.0197 39.8438 33.2184 39.7615 33.3649 39.6149C33.5114 39.4684 33.5937 39.2697 33.5937 39.0625V34.375C33.5928 33.5892 33.5233 32.805 33.3859 32.0313H39.0625C39.2697 32.0313 39.4684 31.949 39.6149 31.8024C39.7614 31.6559 39.8437 31.4572 39.8437 31.25V26.1719C39.8479 24.023 39.1932 21.9245 37.9678 20.1592C36.7424 18.3939 35.0053 17.0467 32.9906 16.2992ZM29.2969 2.34376C31.0221 2.34603 32.6786 3.01959 33.9159 4.22184C35.1532 5.42409 35.874 7.06066 35.9258 8.78506C35.9776 10.5095 35.3562 12.1863 34.1933 13.4607C33.0304 14.735 31.4172 15.5067 29.6953 15.6125C29.9426 14.7261 30.0713 13.8109 30.0781 12.8906C30.0671 11.086 29.5616 9.31893 28.6164 7.78159C27.6712 6.24424 26.3226 4.99548 24.7172 4.1711C25.9505 2.99342 27.5916 2.33859 29.2969 2.34376ZM23.1437 5.18673C24.9469 5.84595 26.4617 7.11676 27.4244 8.77785C28.3871 10.4389 28.7367 12.3851 28.4122 14.2774C28.0878 16.1696 27.1099 17.8882 25.6489 19.1337C24.1878 20.3792 22.3362 21.0729 20.4164 21.0938C20.3031 21.0938 20.2516 21.0938 20.1203 21.0938C18.2112 21.0477 16.3778 20.3375 14.936 19.0852C13.4942 17.833 12.5342 16.1172 12.2212 14.2333C11.9083 12.3494 12.2621 10.4154 13.2216 8.76427C14.1811 7.11315 15.6864 5.84828 17.4781 5.18751C19.3085 4.52513 21.3132 4.52485 23.1437 5.18673ZM4.6875 8.98439C4.68662 7.68441 5.06732 6.41276 5.78239 5.32711C6.49746 4.24147 7.51546 3.38959 8.71015 2.87709C9.90484 2.36459 11.2237 2.21402 12.5032 2.44404C13.7826 2.67407 14.9664 3.27458 15.9078 4.1711C14.3018 4.99465 12.9526 6.24322 12.0073 7.78075C11.062 9.31828 10.5568 11.0858 10.5469 12.8906C10.5539 13.8108 10.6826 14.7261 10.9297 15.6125C9.24126 15.5091 7.65572 14.7661 6.49598 13.5346C5.33624 12.3032 4.68951 10.676 4.6875 8.98439ZM2.34375 26.1719C2.34755 24.9751 2.58962 23.791 3.05586 22.6887C3.52209 21.5864 4.20315 20.588 5.0593 19.7517C5.91545 18.9154 6.92956 18.258 8.04247 17.8177C9.15539 17.3775 10.3448 17.1632 11.5414 17.1875C12.5388 19.1889 14.1828 20.7949 16.207 21.7453C14.1827 22.4088 12.3464 23.5468 10.8514 25.0643C9.35628 26.5818 8.24578 28.4348 7.6125 30.4688H2.34375V26.1719ZM32.0312 38.2813H8.59375V34.375C8.59375 27.1711 15.05 22.2328 20.5125 22.6641C23.5866 22.7097 26.519 23.9642 28.6748 26.156C30.8307 28.3479 32.0365 31.3006 32.0312 34.375V38.2813ZM38.2812 30.4688H33.0117C32.3789 28.4362 31.2701 26.584 29.7775 25.0662C28.2848 23.5484 26.4514 22.4088 24.4297 21.7422C26.4463 20.7866 28.0847 19.1831 29.0836 17.1875C30.2815 17.1582 31.4731 17.369 32.5883 17.8074C33.7034 18.2459 34.7195 18.9031 35.5767 19.7404C36.4339 20.5777 37.1148 21.5781 37.5793 22.6827C38.0438 23.7873 38.2824 24.9736 38.2812 26.1719V30.4688Z" fill="#4285F4"/>
</svg>
