<svg width="175" height="191" viewBox="0 0 175 191" fill="none" xmlns="http://www.w3.org/2000/svg">
<g clip-path="url(#clip0)">
<path d="M98.6876 20.0596C104.796 36.3925 124.787 33.9347 138.352 30.4461C141.605 29.5739 144.937 28.6225 147.872 26.9575C150.807 25.2925 153.266 22.5968 154.218 19.346C155.249 15.6989 154.059 11.6553 151.997 8.48384C150.093 5.55026 147.316 2.45811 144.381 0.555243C143.112 3.80597 138.59 4.04383 135.496 4.04383C131.133 4.04383 127.167 2.37882 123.121 1.18953C118.996 0.000240743 114.553 -0.237617 110.428 0.872387C102.099 2.85454 95.4351 11.3381 98.6876 20.0596Z" fill="#1C2559"/>
<path d="M111.142 129.395C110.904 129.395 110.825 129.395 110.666 129.474L111.142 129.395Z" fill="#1C2559"/>
<path d="M111.142 129.395C110.904 129.395 110.825 129.395 110.666 129.474L111.142 129.395Z" fill="#1C2559"/>
<path d="M93.5312 49.8708V34.5686C93.5312 21.5657 105.669 10.9414 120.503 10.9414C127.881 10.9414 134.624 13.5578 139.542 17.8393C144.461 22.1207 147.475 27.9879 147.475 34.4894V49.7916" stroke="#1C2559" stroke-width="2" stroke-miterlimit="10"/>
<path d="M147.475 66.4419V84.1227C147.475 97.1256 135.338 107.75 120.503 107.75C105.669 107.75 93.5312 97.1256 93.5312 84.1227V66.4419" stroke="#1C2559" stroke-width="2" stroke-miterlimit="10"/>
<path d="M104.479 71.9125C112.058 71.9125 118.203 65.7714 118.203 58.196C118.203 50.6206 112.058 44.4795 104.479 44.4795C96.8992 44.4795 90.7548 50.6206 90.7548 58.196C90.7548 65.7714 96.8992 71.9125 104.479 71.9125Z" stroke="#1C2559" stroke-width="2" stroke-miterlimit="10"/>
<path d="M136.448 71.9125C144.028 71.9125 150.172 65.7714 150.172 58.196C150.172 50.6206 144.028 44.4795 136.448 44.4795C128.869 44.4795 122.724 50.6206 122.724 58.196C122.724 65.7714 128.869 71.9125 136.448 71.9125Z" stroke="#1C2559" stroke-width="2" stroke-miterlimit="10"/>
<path d="M118.123 57.7993H122.883" stroke="#1C2559" stroke-width="4" stroke-miterlimit="10"/>
<path d="M131.53 105.609H131.609V130.425" stroke="#1C2559" stroke-width="2" stroke-miterlimit="10"/>
<path d="M111.777 130.108V106.243" stroke="#1C2559" stroke-width="2" stroke-miterlimit="10"/>
<path d="M104.479 61.3673C106.231 61.3673 107.652 59.9474 107.652 58.1959C107.652 56.4443 106.231 55.0244 104.479 55.0244C102.726 55.0244 101.306 56.4443 101.306 58.1959C101.306 59.9474 102.726 61.3673 104.479 61.3673Z" fill="#1C2559"/>
<path d="M136.448 61.3673C138.201 61.3673 139.621 59.9474 139.621 58.1959C139.621 56.4443 138.201 55.0244 136.448 55.0244C134.696 55.0244 133.275 56.4443 133.275 58.1959C133.275 59.9474 134.696 61.3673 136.448 61.3673Z" fill="#1C2559"/>
<path d="M91.7067 63.3496H90.1201C88.3749 63.3496 86.7883 64.0632 85.5984 65.1732C84.4878 66.3625 83.7738 67.9482 83.7738 69.6925C83.7738 73.1811 86.6297 76.0354 90.1201 76.0354H93.2933" stroke="#1C2559" stroke-width="2" stroke-miterlimit="10"/>
<path d="M149.22 63.3496H150.807C154.297 63.3496 157.153 66.2039 157.153 69.6925C157.153 71.4368 156.439 73.0225 155.249 74.2118C154.139 75.3218 152.552 76.0354 150.807 76.0354H147.634" stroke="#1C2559" stroke-width="2" stroke-miterlimit="10"/>
<path d="M93.3726 67.7896V71.5953H90.8341C89.8028 71.5953 88.9302 70.7231 88.9302 69.6924C88.9302 69.1374 89.1682 68.6617 89.4855 68.3446C89.8028 68.0274 90.2788 67.7896 90.8341 67.7896H93.3726Z" fill="#1C2559"/>
<path d="M147.634 71.5953V67.7896H150.172C151.203 67.7896 152.076 68.6617 152.076 69.6924C152.076 70.2474 151.838 70.7231 151.521 71.0403C151.203 71.3574 150.728 71.5953 150.172 71.5953H147.634Z" fill="#1C2559"/>
<path d="M120.503 71.2783C120.503 71.2783 116.537 77.6212 122.883 76.0355" stroke="#1C2559" stroke-width="2" stroke-miterlimit="10" stroke-linecap="round"/>
<path d="M113.364 89.5933C113.364 89.5933 119.71 97.4426 128.436 89.5933" stroke="#1C2559" stroke-width="2" stroke-miterlimit="10" stroke-linecap="round"/>
<path d="M98.291 41.9423C98.291 41.9423 102.654 37.5816 110.19 41.1495" stroke="#1C2559" stroke-width="3" stroke-miterlimit="10" stroke-linecap="round"/>
<path d="M142.715 41.9423C142.715 41.9423 138.352 37.5816 130.816 41.1495" stroke="#1C2559" stroke-width="3" stroke-miterlimit="10" stroke-linecap="round"/>
<path d="M93.3726 32.9039C93.3726 32.9039 82.4251 24.4203 87.1849 14.1131C91.9446 3.80593 107.017 9.35596 107.017 9.35596C107.017 9.35596 113.046 35.0446 93.3726 32.9039Z" fill="#1C2559"/>
<path d="M38.9528 96.2541C38.0009 93.1619 36.6523 91.6555 35.9383 87.1362C34.4311 78.0976 34.9864 69.4554 31.2579 69.7725C29.7506 69.9311 29.2747 71.5168 29.354 72.389L30.5439 86.6604C30.068 88.3255 29.1953 87.6912 29.1953 87.6912C29.1953 87.6912 26.1015 75.0054 25.7049 72.7061C25.3082 70.4861 24.1976 69.2175 22.6904 69.3761C20.0725 69.6139 21.1038 72.7854 21.3418 73.9747L24.1183 89.3562C24.3563 90.8626 22.7697 90.3869 22.7697 90.3869L16.582 75.0054C15.8681 73.3404 14.5195 73.7368 14.5195 73.7368C12.0603 74.2918 13.0122 76.5118 13.0122 76.5118L18.3273 92.8448C18.3273 92.924 18.3273 93.0033 18.3273 93.0826C18.4066 93.9548 17.296 94.4305 16.82 93.6376C15.1541 91.1005 11.9016 87.0569 9.20441 85.4712C7.85581 84.6783 6.90387 84.8369 6.34856 85.2333C5.79326 85.6297 5.71393 86.3433 6.11057 86.8983L16.0267 101.249C18.3273 116.472 27.6088 118.296 27.6088 118.296L33.1618 140.02L41.3327 174.271L42.364 178.632C43.3159 182.834 47.1237 185.847 51.4075 185.847H55.7706C58.8644 185.847 61.0063 182.834 60.0544 179.98L40.3014 119.881L39.4288 114.648C41.3327 112.508 42.602 107.988 43.2366 104.738C43.6332 102.993 43.7919 101.17 43.6332 99.4255C43.3159 95.0648 46.2511 87.2154 46.2511 87.2154C46.0131 85.709 43.1573 86.9776 43.1573 86.9776C39.9841 88.0876 39.1908 93.1619 38.9528 95.9369C38.8735 97.1262 38.3182 98.1569 37.5249 98.9498C32.7652 103.628 32.3685 108.861 32.3685 108.861" stroke="#1C2559" stroke-width="2" stroke-miterlimit="10"/>
<path d="M25.6255 72.7847C25.2289 70.5647 24.5149 68.8997 22.611 69.4547C20.0725 70.1683 21.0244 72.864 21.2624 74.0533" stroke="#1C2559" stroke-width="2" stroke-miterlimit="10"/>
<path d="M180 190.207V191H162.706L159.057 170.782V191H84.1704V179.503C84.1704 176.728 84.1704 173.953 84.2498 171.178C82.5839 172.526 80.7593 173.636 78.6174 174.825L62.0376 185.925C61.9583 186.005 61.879 186.005 61.7996 186.084C61.0857 186.48 60.2924 186.718 59.4198 186.718L55.9719 186.849C55.9719 186.849 59.6578 185.45 60.5304 181.961L54.5807 162.14C63.0689 155.083 76.7928 134.707 103.13 130.505C104.241 130.267 105.431 130.029 106.7 129.87C107.89 129.712 109.08 129.553 110.428 129.474L111.301 129.395V129.553L110.825 129.632C110.984 129.632 111.063 129.632 111.222 129.553H111.301C111.46 129.553 111.618 129.553 111.777 129.474H111.856L112.65 129.395V132.407C112.65 132.804 112.808 133.28 113.205 133.676C114.395 135.024 117.092 136.055 120.345 136.292C120.9 136.372 121.455 136.372 122.01 136.372C122.09 136.372 122.169 136.372 122.169 136.372H122.248C125.422 136.292 128.357 135.42 129.864 134.152C130.34 133.755 130.816 133.2 130.816 132.407V129.632L131.609 129.791H131.768C132.006 129.791 132.165 129.87 132.403 129.87V129.632L133.434 129.791C162.548 133.359 180 155.955 180 190.207Z" fill="#1C2559"/>
<path d="M61.9583 185.846L61.7203 186.005C61.7997 186.005 61.879 185.925 61.9583 185.846Z" fill="#1C2559"/>
</g>
<defs>
<clipPath id="clip0">
<rect width="175" height="191" fill="white"/>
</clipPath>
</defs>
</svg>
