<svg width="50" height="50" viewBox="0 0 50 50" fill="none" xmlns="http://www.w3.org/2000/svg">
<path d="M48.4375 5.46875H46.0938V4.6875C46.0938 4.4803 46.0114 4.28159 45.8649 4.13507C45.7184 3.98856 45.5197 3.90625 45.3125 3.90625H41.4062V3.125C41.4062 2.5034 41.1593 1.90726 40.7198 1.46772C40.2802 1.02818 39.6841 0.78125 39.0625 0.78125C38.4409 0.78125 37.8448 1.02818 37.4052 1.46772C36.9657 1.90726 36.7188 2.5034 36.7188 3.125V3.90625H33.5938V3.125C33.5938 2.5034 33.3468 1.90726 32.9073 1.46772C32.4677 1.02818 31.8716 0.78125 31.25 0.78125C30.6284 0.78125 30.0323 1.02818 29.5927 1.46772C29.1532 1.90726 28.9062 2.5034 28.9062 3.125V3.90625H25.7812V3.125C25.7812 2.5034 25.5343 1.90726 25.0948 1.46772C24.6552 1.02818 24.0591 0.78125 23.4375 0.78125C22.8159 0.78125 22.2198 1.02818 21.7802 1.46772C21.3407 1.90726 21.0938 2.5034 21.0938 3.125V3.90625H17.9688V3.125C17.9688 2.5034 17.7218 1.90726 17.2823 1.46772C16.8427 1.02818 16.2466 0.78125 15.625 0.78125C15.0034 0.78125 14.4073 1.02818 13.9677 1.46772C13.5282 1.90726 13.2812 2.5034 13.2812 3.125V3.90625H10.1562V3.125C10.1562 2.5034 9.90932 1.90726 9.46978 1.46772C9.03024 1.02818 8.4341 0.78125 7.8125 0.78125C7.1909 0.78125 6.59476 1.02818 6.15522 1.46772C5.71568 1.90726 5.46875 2.5034 5.46875 3.125V3.90625H1.5625C1.3553 3.90625 1.15659 3.98856 1.01007 4.13507C0.86356 4.28159 0.78125 4.4803 0.78125 4.6875V45.3125C0.78125 45.5197 0.86356 45.7184 1.01007 45.8649C1.15659 46.0114 1.3553 46.0938 1.5625 46.0938H2.34375V48.4375C2.34375 48.6447 2.42606 48.8434 2.57257 48.9899C2.71909 49.1364 2.9178 49.2188 3.125 49.2188H48.4375C48.6447 49.2188 48.8434 49.1364 48.9899 48.9899C49.1364 48.8434 49.2188 48.6447 49.2188 48.4375V6.25C49.2188 6.0428 49.1364 5.84409 48.9899 5.69757C48.8434 5.55106 48.6447 5.46875 48.4375 5.46875ZM2.34375 44.5312V14.8438H44.5312V44.5312H2.34375ZM38.2812 3.125C38.2812 2.9178 38.3636 2.71909 38.5101 2.57257C38.6566 2.42606 38.8553 2.34375 39.0625 2.34375C39.2697 2.34375 39.4684 2.42606 39.6149 2.57257C39.7614 2.71909 39.8438 2.9178 39.8438 3.125V6.25C39.8438 6.4572 39.7614 6.65591 39.6149 6.80243C39.4684 6.94894 39.2697 7.03125 39.0625 7.03125C38.8553 7.03125 38.6566 6.94894 38.5101 6.80243C38.3636 6.65591 38.2812 6.4572 38.2812 6.25V3.125ZM30.4688 3.125C30.4688 2.9178 30.5511 2.71909 30.6976 2.57257C30.8441 2.42606 31.0428 2.34375 31.25 2.34375C31.4572 2.34375 31.6559 2.42606 31.8024 2.57257C31.9489 2.71909 32.0312 2.9178 32.0312 3.125V6.25C32.0312 6.4572 31.9489 6.65591 31.8024 6.80243C31.6559 6.94894 31.4572 7.03125 31.25 7.03125C31.0428 7.03125 30.8441 6.94894 30.6976 6.80243C30.5511 6.65591 30.4688 6.4572 30.4688 6.25V3.125ZM22.6562 3.125C22.6562 2.9178 22.7386 2.71909 22.8851 2.57257C23.0316 2.42606 23.2303 2.34375 23.4375 2.34375C23.6447 2.34375 23.8434 2.42606 23.9899 2.57257C24.1364 2.71909 24.2188 2.9178 24.2188 3.125V6.25C24.2188 6.4572 24.1364 6.65591 23.9899 6.80243C23.8434 6.94894 23.6447 7.03125 23.4375 7.03125C23.2303 7.03125 23.0316 6.94894 22.8851 6.80243C22.7386 6.65591 22.6562 6.4572 22.6562 6.25V3.125ZM14.8438 3.125C14.8438 2.9178 14.9261 2.71909 15.0726 2.57257C15.2191 2.42606 15.4178 2.34375 15.625 2.34375C15.8322 2.34375 16.0309 2.42606 16.1774 2.57257C16.3239 2.71909 16.4062 2.9178 16.4062 3.125V6.25C16.4062 6.4572 16.3239 6.65591 16.1774 6.80243C16.0309 6.94894 15.8322 7.03125 15.625 7.03125C15.4178 7.03125 15.2191 6.94894 15.0726 6.80243C14.9261 6.65591 14.8438 6.4572 14.8438 6.25V3.125ZM7.03125 3.125C7.03125 2.9178 7.11356 2.71909 7.26007 2.57257C7.40659 2.42606 7.6053 2.34375 7.8125 2.34375C8.0197 2.34375 8.21841 2.42606 8.36493 2.57257C8.51144 2.71909 8.59375 2.9178 8.59375 3.125V6.25C8.59375 6.4572 8.51144 6.65591 8.36493 6.80243C8.21841 6.94894 8.0197 7.03125 7.8125 7.03125C7.6053 7.03125 7.40659 6.94894 7.26007 6.80243C7.11356 6.65591 7.03125 6.4572 7.03125 6.25V3.125ZM5.46875 5.46875V6.25C5.46875 6.8716 5.71568 7.46774 6.15522 7.90728C6.59476 8.34682 7.1909 8.59375 7.8125 8.59375C8.4341 8.59375 9.03024 8.34682 9.46978 7.90728C9.90932 7.46774 10.1562 6.8716 10.1562 6.25V5.46875H13.2812V6.25C13.2812 6.8716 13.5282 7.46774 13.9677 7.90728C14.4073 8.34682 15.0034 8.59375 15.625 8.59375C16.2466 8.59375 16.8427 8.34682 17.2823 7.90728C17.7218 7.46774 17.9688 6.8716 17.9688 6.25V5.46875H21.0938V6.25C21.0938 6.8716 21.3407 7.46774 21.7802 7.90728C22.2198 8.34682 22.8159 8.59375 23.4375 8.59375C24.0591 8.59375 24.6552 8.34682 25.0948 7.90728C25.5343 7.46774 25.7812 6.8716 25.7812 6.25V5.46875H28.9062V6.25C28.9062 6.8716 29.1532 7.46774 29.5927 7.90728C30.0323 8.34682 30.6284 8.59375 31.25 8.59375C31.8716 8.59375 32.4677 8.34682 32.9073 7.90728C33.3468 7.46774 33.5938 6.8716 33.5938 6.25V5.46875H36.7188V6.25C36.7188 6.8716 36.9657 7.46774 37.4052 7.90728C37.8448 8.34682 38.4409 8.59375 39.0625 8.59375C39.6841 8.59375 40.2802 8.34682 40.7198 7.90728C41.1593 7.46774 41.4062 6.8716 41.4062 6.25V5.46875H44.5312V13.2812H2.34375V5.46875H5.46875ZM47.6562 47.6562H3.90625V46.0938H45.3125C45.5197 46.0938 45.7184 46.0114 45.8649 45.8649C46.0114 45.7184 46.0938 45.5197 46.0938 45.3125V7.03125H47.6562V47.6562Z" fill="#4285F4"/>
<path d="M31.3905 21.0938H32.0311V19.5312H28.9061C28.6989 19.5312 28.5002 19.6136 28.3537 19.7601C28.2072 19.9066 28.1249 20.1053 28.1249 20.3125V23.4375H29.6874V21.6875C31.6042 23.1845 32.9202 25.3198 33.396 27.7049C33.8718 30.0901 33.4759 32.5668 32.2802 34.6848C31.0846 36.8027 29.1685 38.4213 26.8805 39.2462C24.5925 40.0711 22.0845 40.0475 19.8124 39.1797L19.2499 40.625C20.5853 41.1423 22.0052 41.4072 23.4374 41.4062C25.7917 41.4034 28.0905 40.6915 30.0344 39.3634C31.9783 38.0352 33.4771 36.1523 34.3354 33.96C35.1938 31.7678 35.3719 29.3678 34.8466 27.0729C34.3213 24.7779 33.117 22.6944 31.3905 21.0938Z" fill="#F9BD33"/>
<path d="M17.1875 37.6875C15.2706 36.1905 13.9546 34.0552 13.4788 31.6701C13.003 29.2849 13.3989 26.8082 14.5946 24.6902C15.7902 22.5723 17.7063 20.9537 19.9943 20.1288C22.2823 19.3039 24.7904 19.3275 27.0624 20.1953L27.6249 18.75C26.2895 18.2327 24.8696 17.9678 23.4374 17.9688C21.0831 17.9716 18.7843 18.6835 16.8404 20.0116C14.8965 21.3398 13.3978 23.2227 12.5394 25.415C11.6811 27.6072 11.5029 30.0072 12.0282 32.3021C12.5535 34.5971 13.7578 36.6806 15.4843 38.2813H14.8437V39.8438H17.9687C18.1759 39.8438 18.3746 39.7614 18.5211 39.6149C18.6676 39.4684 18.75 39.2697 18.75 39.0625V35.9375H17.1875V37.6875Z" fill="#F9BD33"/>
<path d="M16.4062 29.6875C16.4062 31.0782 16.8186 32.4376 17.5912 33.5939C18.3638 34.7501 19.462 35.6513 20.7468 36.1835C22.0316 36.7157 23.4453 36.855 24.8092 36.5836C26.1732 36.3123 27.426 35.6427 28.4093 34.6593C29.3927 33.676 30.0623 32.4232 30.3336 31.0592C30.605 29.6953 30.4657 28.2816 29.9335 26.9968C29.4013 25.712 28.5001 24.6138 27.3439 23.8412C26.1876 23.0686 24.8282 22.6562 23.4375 22.6562C21.5727 22.6563 19.7843 23.397 18.4657 24.7157C17.147 26.0343 16.4063 27.8227 16.4062 29.6875ZM28.8437 28.9063H27.3438V30.4688H28.8437C28.6742 31.6351 28.1323 32.7155 27.2989 33.5489C26.4655 34.3823 25.3851 34.9242 24.2188 35.0937V33.5938H22.6563V35.0937C21.4899 34.9242 20.4095 34.3823 19.5761 33.5489C18.7427 32.7155 18.2008 31.6351 18.0313 30.4688H19.5313V28.9063H18.0313C18.2008 27.7399 18.7427 26.6595 19.5761 25.8261C20.4095 24.9927 21.4899 24.4508 22.6563 24.2813V25.7813H24.2188V24.2813C25.3851 24.4508 26.4655 24.9927 27.2989 25.8261C28.1323 26.6595 28.6742 27.7399 28.8437 28.9063Z" fill="#F9BD33"/>
<path d="M24.2189 27.3438H22.6564V29.6875C22.6558 29.7903 22.6755 29.8922 22.7144 29.9874C22.7533 30.0826 22.8105 30.1692 22.8829 30.2422L25.2267 32.5859L26.3361 31.4766L24.2189 29.3672V27.3438Z" fill="#F9BD33"/>
</svg>
