<svg width="40" height="40" viewBox="0 0 40 40" fill="none" xmlns="http://www.w3.org/2000/svg">
<path d="M15.2659 22.7559H4.34484C4.02152 22.7559 3.7594 23.018 3.7594 23.3413C3.7594 23.6646 4.02152 23.9267 4.34484 23.9267H15.2659C15.5892 23.9267 15.8513 23.6646 15.8513 23.3413C15.8513 23.018 15.5892 22.7559 15.2659 22.7559Z" fill="#4285F4"/>
<path d="M23.7245 22.7559H18.264C17.9407 22.7559 17.6786 23.018 17.6786 23.3413C17.6786 23.6646 17.9407 23.9267 18.264 23.9267H23.7245C24.0479 23.9267 24.31 23.6646 24.31 23.3413C24.31 23.018 24.0479 22.7559 23.7245 22.7559Z" fill="#4285F4"/>
<path d="M15.2659 25.8154H4.34484C4.02152 25.8154 3.7594 26.0775 3.7594 26.4009C3.7594 26.7242 4.02152 26.9863 4.34484 26.9863H15.2659C15.5892 26.9863 15.8513 26.7242 15.8513 26.4009C15.8513 26.0775 15.5892 25.8154 15.2659 25.8154Z" fill="#4285F4"/>
<path d="M21.9671 25.8154H18.264C17.9407 25.8154 17.6786 26.0775 17.6786 26.4009C17.6786 26.7242 17.9407 26.9863 18.264 26.9863H21.9671C22.2904 26.9863 22.5525 26.7242 22.5525 26.4009C22.5525 26.0775 22.2904 25.8154 21.9671 25.8154Z" fill="#4285F4"/>
<path d="M15.2659 28.8748H4.34484C4.02152 28.8748 3.7594 29.1369 3.7594 29.4602C3.7594 29.7835 4.02152 30.0456 4.34484 30.0456H15.2659C15.5892 30.0456 15.8513 29.7835 15.8513 29.4602C15.8513 29.1369 15.5892 28.8748 15.2659 28.8748Z" fill="#4285F4"/>
<path d="M21.1426 28.8748H18.264C17.9407 28.8748 17.6786 29.1369 17.6786 29.4602C17.6786 29.7835 17.9407 30.0456 18.264 30.0456H21.1426C21.4659 30.0456 21.728 29.7835 21.728 29.4602C21.728 29.1369 21.4659 28.8748 21.1426 28.8748Z" fill="#4285F4"/>
<path d="M15.2659 31.9341H4.34484C4.02152 31.9341 3.7594 32.1962 3.7594 32.5195C3.7594 32.8428 4.02152 33.105 4.34484 33.105H15.2659C15.5892 33.105 15.8513 32.8428 15.8513 32.5195C15.8513 32.1962 15.5892 31.9341 15.2659 31.9341Z" fill="#4285F4"/>
<path d="M21.1426 31.9341H18.264C17.9407 31.9341 17.6786 32.1962 17.6786 32.5195C17.6786 32.8428 17.9407 33.105 18.264 33.105H21.1426C21.4659 33.105 21.728 32.8428 21.728 32.5195C21.728 32.1962 21.4659 31.9341 21.1426 31.9341Z" fill="#4285F4"/>
<path d="M23.5326 33.6199C23.3258 33.6199 23.1273 33.5419 22.9735 33.3973C22.7879 33.2228 22.6952 32.9772 22.7192 32.7235L22.9597 30.1791C22.9807 29.9565 23.1266 29.7653 23.3358 29.6864C23.545 29.6074 23.7808 29.6546 23.9436 29.8077L26.4969 32.2089C26.6597 32.362 26.7212 32.5945 26.6552 32.8082C26.5892 33.0218 26.4074 33.1791 26.1865 33.2137L23.6616 33.6098C23.6184 33.6165 23.5753 33.6199 23.5326 33.6199ZM24.0128 31.4801L23.9274 32.3829L24.8233 32.2424L24.0128 31.4801Z" fill="#4285F4"/>
<path d="M21.2561 13.2778C21.2561 9.29591 18.0166 6.0564 14.0347 6.0564C10.0528 6.0564 6.81335 9.29583 6.81335 13.2778C6.81335 17.2597 10.0528 20.4991 14.0347 20.4991C18.0166 20.4991 21.2561 17.2596 21.2561 13.2778ZM7.98431 13.2778C7.98431 9.94153 10.6985 7.22728 14.0348 7.22728C17.3711 7.22728 20.0853 9.94146 20.0853 13.2778C20.0853 16.6141 17.3711 19.3282 14.0348 19.3282C10.6985 19.3282 7.98431 16.614 7.98431 13.2778Z" fill="#FBBC05"/>
<path d="M16.8485 16.6833V14.5576C16.8485 13.8903 16.5478 13.2932 16.0761 12.8906C16.4153 12.4534 16.618 11.9052 16.618 11.3102C16.618 9.88567 15.4591 8.72681 14.0346 8.72681C12.6101 8.72681 11.4512 9.88575 11.4512 11.3102C11.4512 11.905 11.6537 12.453 11.9927 12.8901C11.521 13.2926 11.2206 13.8902 11.2206 14.5576V16.6833C11.2206 17.2881 11.7127 17.7801 12.3175 17.7801H15.7516C16.3565 17.7801 16.8485 17.2881 16.8485 16.6833ZM14.0346 9.89769C14.8135 9.89769 15.4471 10.5314 15.4471 11.3102C15.4471 12.0891 14.8135 12.7228 14.0346 12.7228C13.2557 12.7228 12.622 12.0891 12.622 11.3102C12.622 10.5314 13.2557 9.89769 14.0346 9.89769ZM15.6777 16.6093H12.3915V14.5576C12.3915 14.1636 12.6158 13.8216 12.9431 13.651C13.2749 13.8063 13.6447 13.8937 14.0346 13.8937C14.4239 13.8937 14.793 13.8066 15.1244 13.6518C15.4524 13.8219 15.6777 14.1632 15.6777 14.5576V16.6093Z" fill="#FBBC05"/>
<path d="M39.0066 21.4862L39.3563 21.1143C40.2533 20.1606 40.2071 18.6549 39.2534 17.7579L37.5848 16.1886C37.1228 15.7541 36.5191 15.5254 35.8853 15.5449C35.2514 15.5645 34.663 15.8295 34.2284 16.2916L33.8787 16.6634L33.7559 16.548C33.3315 16.1489 32.6615 16.1695 32.2625 16.5938L31.0746 17.857C30.7731 18.1776 30.7115 18.6383 30.8823 19.0165L28.0697 22.0072V7.51255C28.0697 7.4974 28.0684 7.48242 28.0672 7.46743C28.0669 7.4629 28.067 7.45845 28.0665 7.45392C28.064 7.42817 28.0594 7.4028 28.0535 7.37774C28.0519 7.37126 28.05 7.36494 28.0483 7.35854C28.0429 7.33871 28.0364 7.31927 28.029 7.30015C28.0266 7.2939 28.0244 7.28766 28.0217 7.28149C28.0116 7.25784 28.0001 7.23481 27.9869 7.21265C27.9845 7.20859 27.9816 7.20476 27.9791 7.20078C27.9674 7.1822 27.9547 7.1644 27.9409 7.14723C27.9363 7.14153 27.9317 7.13584 27.9269 7.13022C27.9095 7.11008 27.8911 7.09056 27.8709 7.07276L23.0273 2.81427C23.0082 2.79741 22.9877 2.7825 22.9668 2.76837C22.9622 2.76525 22.9577 2.76213 22.953 2.75924C22.9325 2.74628 22.9114 2.73457 22.8896 2.72427C22.8855 2.72232 22.8813 2.72076 22.8771 2.71888C22.8573 2.71014 22.8371 2.70249 22.8165 2.69601C22.8123 2.69468 22.8082 2.69312 22.8041 2.69195C22.781 2.68524 22.7575 2.68017 22.7337 2.67634C22.7285 2.67548 22.7234 2.67486 22.718 2.67423C22.6954 2.67119 22.6726 2.66924 22.6496 2.66893C22.6475 2.66893 22.6454 2.66861 22.6433 2.66861L22.6408 2.66854H7.39887C7.07555 2.66854 6.81343 2.93066 6.81343 3.25398C6.81343 3.57729 7.07555 3.83942 7.39887 3.83942H22.0553V6.66623C22.0553 7.45572 22.6977 8.09806 23.4872 8.09806H26.8988V23.2524L23.3845 26.9892C23.3532 27.0225 23.3271 27.0587 23.305 27.0965C23.3023 27.1013 23.2997 27.1061 23.2971 27.111C23.2869 27.1296 23.2779 27.1485 23.2699 27.1679C23.2684 27.1716 23.2667 27.1751 23.2652 27.1787C23.2563 27.2019 23.2488 27.2255 23.2429 27.2494C23.2418 27.2537 23.2411 27.258 23.2402 27.2624C23.2356 27.283 23.2321 27.3038 23.2298 27.3247C23.2294 27.3282 23.2284 27.3316 23.2281 27.3352L22.7187 32.7236C22.6947 32.9773 22.7874 33.2228 22.973 33.3974C23.1268 33.542 23.3254 33.62 23.5322 33.62C23.5749 33.62 23.6181 33.6167 23.6611 33.6099L26.8988 33.1021V36.1219C26.8988 36.1435 26.8813 36.161 26.8598 36.161H1.20991C1.18837 36.161 1.17088 36.1435 1.17088 36.1219V3.87837C1.17088 3.85682 1.18837 3.83934 1.20991 3.83934H4.64254C4.96586 3.83934 5.22798 3.57722 5.22798 3.2539C5.22798 2.93058 4.96586 2.66846 4.64254 2.66846H1.20991C0.542742 2.66846 0 3.2112 0 3.87837V36.1218C0 36.789 0.542742 37.3318 1.20991 37.3318H26.8598C27.5269 37.3318 28.0697 36.789 28.0697 36.1218V32.9183L29.0082 32.7711C29.0111 32.7706 29.0139 32.7696 29.0168 32.7691C29.0656 32.7608 29.1134 32.7463 29.1591 32.7255C29.1642 32.7232 29.1691 32.7207 29.1741 32.7183C29.1922 32.7094 29.2097 32.6997 29.227 32.689C29.2315 32.6862 29.2361 32.6835 29.2406 32.6805C29.2612 32.6669 29.2812 32.6522 29.3003 32.6357L29.3029 32.6332C29.317 32.6208 29.3309 32.6078 29.344 32.5938L33.3688 28.3142C33.5903 28.0786 33.5789 27.7081 33.3434 27.4866C33.1078 27.2651 32.7373 27.2765 32.5158 27.512L28.8921 31.3651L28.1236 30.6424L35.1655 23.1547L35.934 23.8773L34.3043 25.6102C34.0828 25.8458 34.0942 26.2163 34.3297 26.4378C34.5652 26.6593 34.9358 26.6479 35.1572 26.4124L36.8414 24.6216C36.9601 24.6668 37.0867 24.6909 37.2169 24.6909C37.228 24.6909 37.2391 24.6908 37.2501 24.6905C37.5322 24.6818 37.794 24.5638 37.9873 24.3582L39.1752 23.0951C39.5743 22.6707 39.5538 22.0008 39.1294 21.6018L39.0066 21.4862ZM23.4872 6.92711C23.3433 6.92711 23.2262 6.81002 23.2262 6.66616V4.54819L25.9318 6.92711H23.4872ZM31.6803 19.877L32.4488 20.5997L25.4069 28.0875L24.6384 27.3648L31.6803 19.877ZM23.9271 32.3829L24.0124 31.4801L24.823 32.2424L23.9271 32.3829ZM26.2878 32.0126L24.152 30.0039L24.2812 28.6361L25.9632 30.2179L27.6451 31.7997L26.2878 32.0126ZM27.2707 29.8403L26.7653 29.365L26.2599 28.8897L33.3017 21.4019L33.8071 21.8772L34.3126 22.3525L27.2707 29.8403ZM37.2128 23.4727L37.1627 23.4256L36.2103 22.53L35.5414 21.9008L35.2713 21.6468L32.0059 18.5759L33.0371 17.4794L38.2439 22.3763L37.2128 23.4727ZM38.5035 20.3121L38.1538 20.684L36.4427 19.0748L34.7317 17.4657L35.0814 17.0938C35.5361 16.6104 36.2992 16.5869 36.7826 17.0416L38.4512 18.6109C38.9347 19.0655 38.9581 19.8287 38.5035 20.3121Z" fill="#4285F4"/>
</svg>
