<svg width="40" height="40" viewBox="0 0 40 40" fill="none" xmlns="http://www.w3.org/2000/svg">
<path d="M35.7031 0H4.29688C1.92758 0 0 1.92758 0 4.29688V35.7031C0 38.0724 1.92758 40 4.29688 40H35.7031C38.0724 40 40 38.0724 40 35.7031V4.29688C40 1.92758 38.0724 0 35.7031 0ZM2.34375 4.29688C2.34375 3.21992 3.21992 2.34375 4.29688 2.34375H35.7031C36.7801 2.34375 37.6562 3.21992 37.6562 4.29688V26.7188H2.34375V4.29688ZM37.6562 35.7031C37.6562 36.7801 36.7801 37.6562 35.7031 37.6562H4.29688C3.21992 37.6562 2.34375 36.7801 2.34375 35.7031V29.0625H37.6562V35.7031Z" fill="#FBBC05"/>
<path d="M5.9375 34.5312H21.9531V34.9219C21.9531 35.5691 22.4778 36.0938 23.125 36.0938C23.7722 36.0938 24.2969 35.5691 24.2969 34.9219V34.5312H34.0625C34.7097 34.5312 35.2344 34.0066 35.2344 33.3594C35.2344 32.7122 34.7097 32.1875 34.0625 32.1875H24.2969V31.7969C24.2969 31.1497 23.7722 30.625 23.125 30.625C22.4778 30.625 21.9531 31.1497 21.9531 31.7969V32.1875H5.9375C5.29031 32.1875 4.76562 32.7122 4.76562 33.3594C4.76562 34.0066 5.29031 34.5312 5.9375 34.5312Z" fill="#FBBC05"/>
<path d="M33.6119 10.2039L20.3306 6.29764C20.1147 6.23412 19.8852 6.23412 19.6693 6.29764L6.38805 10.2039C5.88937 10.3506 5.54688 10.8083 5.54688 11.3282C5.54688 11.848 5.88937 12.3058 6.38812 12.4525L11.0156 13.8135V19.922C11.0156 20.5691 11.5403 21.0938 12.1875 21.0938H27.8125C28.4597 21.0938 28.9844 20.5691 28.9844 19.922V13.8135L32.1094 12.8944V18.3594C32.1094 19.0066 32.6341 19.5313 33.2812 19.5313C33.9284 19.5313 34.4531 19.0066 34.4531 18.3594V11.3282C34.4531 10.8083 34.1106 10.3506 33.6119 10.2039ZM26.6406 18.7501H13.3594V14.5028L19.6694 16.3587C19.8852 16.4222 20.1148 16.4221 20.3307 16.3587L26.6406 14.5028V18.7501ZM20 14.013L10.8719 11.3282L20 8.64342L29.1281 11.3282L20 14.013Z" fill="#FBBC05"/>
</svg>
