<svg width="40" height="40" viewBox="0 0 40 40" fill="none" xmlns="http://www.w3.org/2000/svg">
<path d="M12.6272 21.52C14.9438 19.7008 15.3469 16.3481 13.5277 14.0315C11.7084 11.7149 8.35575 11.3118 6.03917 13.131C3.72259 14.9503 3.31942 18.3029 5.13867 20.6195C5.40184 20.9546 5.70409 21.2569 6.03917 21.52C4.04409 22.0977 2.66992 23.923 2.6665 26V34C2.6665 34.3682 2.965 34.6667 3.33317 34.6667H15.3332C15.7013 34.6667 15.9998 34.3682 15.9998 34V26C15.9964 23.923 14.6223 22.0977 12.6272 21.52ZM5.33317 17.3333C5.33317 15.1242 7.124 13.3333 9.33317 13.3333C11.5423 13.3333 13.3332 15.1242 13.3332 17.3333C13.3332 19.5425 11.5423 21.3333 9.33317 21.3333C7.12492 21.3312 5.33534 19.5416 5.33317 17.3333ZM9.9485 27.2087L9.33317 28.1333L8.71784 27.2107L9.33317 24.7487L9.9485 27.2087ZM14.6665 33.3333H3.99984V26C4.002 24.16 5.49317 22.6688 7.33317 22.6667H8.47984L7.35317 27.1713C7.30709 27.3541 7.3405 27.5479 7.44517 27.7047L8.7785 29.7047C8.98275 30.011 9.39667 30.0938 9.703 29.8895C9.77617 29.8407 9.839 29.7779 9.88784 29.7047L11.2212 27.7047C11.3258 27.5479 11.3593 27.3541 11.3132 27.1713L10.1865 22.6667H11.3332C13.1732 22.6688 14.6643 24.16 14.6665 26V33.3333Z" fill="#333333"/>
<path d="M21.9998 16.6667H20.6665V18.0001H21.9998V16.6667Z" fill="#4285F4"/>
<path d="M24.6668 16.6667H23.3335V18.0001H24.6668V16.6667Z" fill="#333333"/>
<path d="M27.3333 16.6667H26V18.0001H27.3333V16.6667Z" fill="#4285F4"/>
<path d="M29.9998 16.6667H28.6665V18.0001H29.9998V16.6667Z" fill="#333333"/>
<path d="M32.6668 16.6667H31.3335V18.0001H32.6668V16.6667Z" fill="#4285F4"/>
<path d="M35.3333 16.6667H34V18.0001H35.3333V16.6667Z" fill="#333333"/>
<path d="M35.3333 9.33341H26.6667V7.33341C26.6667 6.96525 26.3682 6.66675 26 6.66675H24V3.33341C24 2.96525 23.7015 2.66675 23.3333 2.66675H16.6667C16.2985 2.66675 16 2.96525 16 3.33341V6.66675H14C13.6318 6.66675 13.3333 6.96525 13.3333 7.33341V9.33341H0.666667C0.2985 9.33341 0 9.63191 0 10.0001V36.6667C0 37.0349 0.2985 37.3334 0.666667 37.3334H39.3333C39.7015 37.3334 40 37.0349 40 36.6667V14.0001C39.9971 11.424 37.9094 9.33633 35.3333 9.33341ZM17.3333 4.00008H22.6667V6.66675H17.3333V4.00008ZM14.6667 8.00008H25.3333V11.3334C25.3333 11.7016 25.0348 12.0001 24.6667 12.0001H15.3333C14.9652 12.0001 14.6667 11.7016 14.6667 11.3334V8.00008ZM38.6667 36.0001H1.33333V10.6667H13.3333V11.3334C13.3333 12.438 14.2288 13.3334 15.3333 13.3334H24.6667C25.7713 13.3334 26.6667 12.438 26.6667 11.3334V10.6667H35.3333C37.1733 10.6689 38.6645 12.1601 38.6667 14.0001V36.0001Z" fill="#4285F4"/>
<path d="M37.3332 24H18.6665V25.3333H37.3332V24Z" fill="#4285F4"/>
<path d="M37.3332 26.6667H18.6665V28.0001H37.3332V26.6667Z" fill="#333333"/>
<path d="M37.3332 29.3333H18.6665V30.6666H37.3332V29.3333Z" fill="#4285F4"/>
<path d="M37.3332 32H18.6665V33.3333H37.3332V32Z" fill="#333333"/>
</svg>
