<svg width="40" height="40" viewBox="0 0 40 40" fill="none" xmlns="http://www.w3.org/2000/svg">
<path d="M12.6272 21.5198C14.9438 19.7005 15.3469 16.3478 13.5277 14.0313C11.7084 11.7147 8.35575 11.3115 6.03917 13.1308C3.72259 14.95 3.31942 18.3027 5.13867 20.6193C5.40184 20.9543 5.70409 21.2567 6.03917 21.5198C4.04409 22.0974 2.66992 23.9228 2.6665 25.9998V33.9998C2.6665 34.3679 2.965 34.6664 3.33317 34.6664H15.3332C15.7013 34.6664 15.9998 34.3679 15.9998 33.9998V25.9998C15.9964 23.9228 14.6223 22.0974 12.6272 21.5198ZM5.33317 17.3331C5.33317 15.1239 7.124 13.3331 9.33317 13.3331C11.5423 13.3331 13.3332 15.1239 13.3332 17.3331C13.3332 19.5423 11.5423 21.3331 9.33317 21.3331C7.12492 21.3309 5.33534 19.5413 5.33317 17.3331ZM9.9485 27.2084L9.33317 28.1331L8.71784 27.2104L9.33317 24.7484L9.9485 27.2084ZM14.6665 33.3331H3.99984V25.9998C4.002 24.1598 5.49317 22.6686 7.33317 22.6664H8.47984L7.35317 27.1711C7.30709 27.3538 7.3405 27.5477 7.44517 27.7044L8.7785 29.7044C8.98275 30.0108 9.39667 30.0935 9.703 29.8893C9.77617 29.8404 9.839 29.7777 9.88784 29.7044L11.2212 27.7044C11.3258 27.5477 11.3593 27.3538 11.3132 27.1711L10.1865 22.6664H11.3332C13.1732 22.6686 14.6643 24.1598 14.6665 25.9998V33.3331Z" fill="#333333"/>
<path d="M21.9998 16.6665H20.6665V17.9998H21.9998V16.6665Z" fill="white"/>
<path d="M24.6668 16.6665H23.3335V17.9998H24.6668V16.6665Z" fill="#333333"/>
<path d="M27.3333 16.6665H26V17.9998H27.3333V16.6665Z" fill="white"/>
<path d="M29.9998 16.6665H28.6665V17.9998H29.9998V16.6665Z" fill="#333333"/>
<path d="M32.6668 16.6665H31.3335V17.9998H32.6668V16.6665Z" fill="white"/>
<path d="M35.3333 16.6665H34V17.9998H35.3333V16.6665Z" fill="#333333"/>
<path d="M35.3333 9.33317H26.6667V7.33317C26.6667 6.965 26.3682 6.6665 26 6.6665H24V3.33317C24 2.965 23.7015 2.6665 23.3333 2.6665H16.6667C16.2985 2.6665 16 2.965 16 3.33317V6.6665H14C13.6318 6.6665 13.3333 6.965 13.3333 7.33317V9.33317H0.666667C0.2985 9.33317 0 9.63167 0 9.99984V36.6665C0 37.0347 0.2985 37.3332 0.666667 37.3332H39.3333C39.7015 37.3332 40 37.0347 40 36.6665V13.9998C39.9971 11.4238 37.9094 9.33609 35.3333 9.33317ZM17.3333 3.99984H22.6667V6.6665H17.3333V3.99984ZM14.6667 7.99984H25.3333V11.3332C25.3333 11.7013 25.0348 11.9998 24.6667 11.9998H15.3333C14.9652 11.9998 14.6667 11.7013 14.6667 11.3332V7.99984ZM38.6667 35.9998H1.33333V10.6665H13.3333V11.3332C13.3333 12.4378 14.2288 13.3332 15.3333 13.3332H24.6667C25.7713 13.3332 26.6667 12.4378 26.6667 11.3332V10.6665H35.3333C37.1733 10.6687 38.6645 12.1598 38.6667 13.9998V35.9998Z" fill="white"/>
<path d="M37.3332 24H18.6665V25.3333H37.3332V24Z" fill="white"/>
<path d="M37.3332 26.6665H18.6665V27.9998H37.3332V26.6665Z" fill="#333333"/>
<path d="M37.3332 29.3335H18.6665V30.6668H37.3332V29.3335Z" fill="white"/>
<path d="M37.3332 32H18.6665V33.3333H37.3332V32Z" fill="#333333"/>
</svg>
