<svg width="203" height="68" viewBox="0 0 203 68" fill="none" xmlns="http://www.w3.org/2000/svg">
<path d="M11.52 58.324C9.576 58.324 7.704 58.072 5.904 57.568C4.128 57.04 2.652 56.308 1.476 55.372L3.276 51.34C5.748 53.068 8.508 53.932 11.556 53.932C13.188 53.932 14.436 53.68 15.3 53.176C16.188 52.648 16.632 51.916 16.632 50.98C16.632 50.164 16.224 49.528 15.408 49.072C14.616 48.592 13.212 48.136 11.196 47.704C8.94 47.248 7.14 46.696 5.796 46.048C4.476 45.376 3.504 44.572 2.88 43.636C2.28 42.676 1.98 41.488 1.98 40.072C1.98 38.536 2.4 37.156 3.24 35.932C4.104 34.708 5.304 33.76 6.84 33.088C8.376 32.392 10.152 32.044 12.168 32.044C13.992 32.044 15.744 32.308 17.424 32.836C19.104 33.364 20.448 34.084 21.456 34.996L19.656 39.028C17.4 37.3 14.916 36.436 12.204 36.436C10.764 36.436 9.612 36.724 8.748 37.3C7.884 37.876 7.452 38.656 7.452 39.64C7.452 40.216 7.608 40.696 7.92 41.08C8.256 41.464 8.808 41.812 9.576 42.124C10.344 42.412 11.436 42.7 12.852 42.988C16.14 43.708 18.504 44.644 19.944 45.796C21.408 46.948 22.14 48.52 22.14 50.512C22.14 52.912 21.204 54.82 19.332 56.236C17.46 57.628 14.856 58.324 11.52 58.324ZM48.1762 39.28C50.2642 39.28 51.8122 39.916 52.8202 41.188C53.8522 42.436 54.3682 44.356 54.3682 46.948V58H48.9322V47.128C48.9322 45.856 48.7282 44.944 48.3202 44.392C47.9122 43.816 47.2402 43.528 46.3042 43.528C45.2002 43.528 44.3482 43.912 43.7482 44.68C43.1482 45.448 42.8482 46.528 42.8482 47.92V58H37.4122V47.128C37.4122 45.88 37.1962 44.968 36.7642 44.392C36.3562 43.816 35.6962 43.528 34.7842 43.528C33.6802 43.528 32.8162 43.912 32.1922 44.68C31.5922 45.448 31.2922 46.528 31.2922 47.92V58H25.8562V44.968C25.8562 43.024 25.7602 41.284 25.5682 39.748H30.6802L31.0042 42.484C31.5562 41.452 32.3242 40.66 33.3082 40.108C34.3162 39.556 35.4682 39.28 36.7642 39.28C39.4762 39.28 41.2762 40.408 42.1642 42.664C42.7642 41.632 43.5922 40.816 44.6482 40.216C45.7282 39.592 46.9042 39.28 48.1762 39.28ZM76.9449 39.748V58H71.5809V55.3C71.0289 56.236 70.2489 56.968 69.2409 57.496C68.2329 58.024 67.0929 58.288 65.8209 58.288C64.2369 58.288 62.8329 57.904 61.6089 57.136C60.4089 56.368 59.4609 55.276 58.7649 53.86C58.0929 52.42 57.7569 50.764 57.7569 48.892C57.7569 47.02 58.0929 45.352 58.7649 43.888C59.4609 42.424 60.4209 41.296 61.6449 40.504C62.8689 39.688 64.2609 39.28 65.8209 39.28C67.0929 39.28 68.2329 39.556 69.2409 40.108C70.2489 40.66 71.0289 41.404 71.5809 42.34V39.748H76.9449ZM67.4049 54.148C68.7489 54.148 69.7809 53.692 70.5009 52.78C71.2209 51.868 71.5809 50.548 71.5809 48.82C71.5809 47.092 71.2209 45.772 70.5009 44.86C69.7809 43.924 68.7489 43.456 67.4049 43.456C66.0609 43.456 65.0169 43.936 64.2729 44.896C63.5289 45.856 63.1569 47.188 63.1569 48.892C63.1569 50.596 63.5169 51.904 64.2369 52.816C64.9809 53.704 66.0369 54.148 67.4049 54.148ZM91.9527 39.316C92.7207 39.316 93.3687 39.436 93.8967 39.676L93.8607 44.644C92.9727 44.236 92.0847 44.032 91.1967 44.032C89.7567 44.032 88.6527 44.428 87.8847 45.22C87.1407 45.988 86.7687 47.068 86.7687 48.46V58H81.3327V44.968C81.3327 43.024 81.2367 41.284 81.0447 39.748H86.1567L86.5167 42.88C86.9727 41.728 87.6807 40.852 88.6407 40.252C89.6247 39.628 90.7287 39.316 91.9527 39.316ZM104.731 43.816V50.908C104.731 51.916 104.995 52.66 105.523 53.14C106.051 53.596 106.735 53.824 107.575 53.824C108.103 53.824 108.703 53.74 109.375 53.572V57.784C108.511 58.12 107.467 58.288 106.243 58.288C103.987 58.288 102.259 57.652 101.059 56.38C99.8833 55.108 99.2953 53.32 99.2953 51.016V43.816H95.8393V39.748H99.2953V35.464L104.731 33.7V39.748H109.375V43.816H104.731Z" fill="white"/>
<path d="M118.429 36.94H110.401V32.368H132.145V36.94H124.117V58H118.429V36.94ZM149.311 39.748V58H144.019V55.336C143.443 56.296 142.687 57.028 141.751 57.532C140.815 58.036 139.759 58.288 138.583 58.288C136.303 58.288 134.599 57.652 133.471 56.38C132.343 55.108 131.779 53.188 131.779 50.62V39.748H137.215V50.728C137.215 52.936 138.163 54.04 140.059 54.04C141.187 54.04 142.099 53.656 142.795 52.888C143.491 52.12 143.839 51.112 143.839 49.864V39.748H149.311ZM160.559 43.816V50.908C160.559 51.916 160.823 52.66 161.351 53.14C161.879 53.596 162.563 53.824 163.403 53.824C163.931 53.824 164.531 53.74 165.203 53.572V57.784C164.339 58.12 163.295 58.288 162.071 58.288C159.815 58.288 158.087 57.652 156.887 56.38C155.711 55.108 155.123 53.32 155.123 51.016V43.816H151.667V39.748H155.123V35.464L160.559 33.7V39.748H165.203V43.816H160.559ZM176.705 58.288C174.761 58.288 173.057 57.904 171.593 57.136C170.153 56.368 169.037 55.264 168.245 53.824C167.477 52.384 167.093 50.704 167.093 48.784C167.093 46.864 167.477 45.184 168.245 43.744C169.037 42.304 170.153 41.2 171.593 40.432C173.057 39.664 174.761 39.28 176.705 39.28C178.625 39.28 180.305 39.664 181.745 40.432C183.185 41.2 184.289 42.304 185.057 43.744C185.849 45.184 186.245 46.864 186.245 48.784C186.245 50.704 185.849 52.384 185.057 53.824C184.289 55.264 183.185 56.368 181.745 57.136C180.305 57.904 178.625 58.288 176.705 58.288ZM176.705 54.148C178.049 54.148 179.069 53.704 179.765 52.816C180.485 51.928 180.845 50.584 180.845 48.784C180.845 47.008 180.485 45.676 179.765 44.788C179.069 43.876 178.049 43.42 176.705 43.42C175.337 43.42 174.293 43.876 173.573 44.788C172.853 45.676 172.493 47.008 172.493 48.784C172.493 52.36 173.897 54.148 176.705 54.148ZM200.339 39.316C201.107 39.316 201.755 39.436 202.283 39.676L202.247 44.644C201.359 44.236 200.471 44.032 199.583 44.032C198.143 44.032 197.039 44.428 196.271 45.22C195.527 45.988 195.155 47.068 195.155 48.46V58H189.719V44.968C189.719 43.024 189.623 41.284 189.431 39.748H194.543L194.903 42.88C195.359 41.728 196.067 40.852 197.027 40.252C198.011 39.628 199.115 39.316 200.339 39.316Z" fill="#F9BD33"/>
<path d="M78.729 25.7235L79.1157 26.5221C79.1157 26.5221 85.2476 31.5014 90.4999 31.5014C95.7521 31.5014 101.912 26.5221 101.912 26.5221L102.27 25.7235H102.27C101.681 23.9617 100.957 21.5429 100.449 18.9883L99.3268 18.3572H81.5081L80.5503 18.988C80.0424 21.5428 79.3183 23.9616 78.7289 25.7235H78.729Z" fill="#405169"/>
<path d="M83.937 18.6282L84.3485 18.3572H81.5081L80.5503 18.988C80.0424 21.5428 79.3183 23.9616 78.7289 25.7235H78.729L79.1157 26.5221C79.1157 26.5221 80.0595 27.2884 81.5234 28.2197C82.3813 25.3538 83.2563 22.0524 83.937 18.6282Z" fill="#294B64"/>
<path d="M110.604 12.9304L91.5245 6.48206C90.86 6.25752 90.14 6.25752 89.4755 6.48206L70.3955 12.9304C69.903 13.0968 69.8595 13.7766 70.3268 14.0044L89.0977 23.1559C89.9827 23.5874 91.0172 23.5874 91.9022 23.1559L110.673 14.0044C111.14 13.7766 111.097 13.0968 110.604 12.9304Z" fill="#477B9E"/>
<path d="M76.1015 14.0037C75.6341 13.7759 75.6776 13.0961 76.1702 12.9297L93.3873 7.11094L91.5244 6.48136C90.8599 6.25674 90.1399 6.25674 89.4754 6.48136L70.3955 12.9297C69.903 13.0961 69.8595 13.7759 70.3268 14.0037L89.0977 23.1552C89.9827 23.5867 91.0172 23.5867 91.9022 23.1552L93.3873 22.4312L76.1015 14.0037Z" fill="#405169"/>
<path d="M106.377 29.1362C106.035 29.1362 105.758 28.8592 105.758 28.5175V17.0751C105.758 16.7813 105.559 16.5244 105.275 16.4501L91.3116 12.7683C90.9812 12.6812 90.7839 12.3427 90.8711 12.0123C90.9582 11.6819 91.2964 11.4844 91.6271 11.5718L105.589 15.2532C106.417 15.4693 106.995 16.2186 106.995 17.075V28.5174C106.995 28.8592 106.718 29.1362 106.377 29.1362Z" fill="#ECF4FF"/>
<path d="M107.46 29.8928H105.294L105.036 33.8993C105.015 34.2313 105.271 34.5127 105.594 34.5127H107.159C107.483 34.5127 107.739 34.2313 107.717 33.8993L107.46 29.8928Z" fill="#FFD064"/>
<path d="M106.446 33.8993L106.703 29.8928H105.294L105.036 33.8993C105.015 34.2313 105.271 34.5127 105.594 34.5127H107.004C106.68 34.5127 106.424 34.2313 106.446 33.8993Z" fill="#EBB044"/>
<path d="M106.878 27.0132H105.875C105.376 27.0132 104.967 27.422 104.967 27.9217V29.7248C104.967 29.8888 105.1 30.0218 105.264 30.0218H107.489C107.653 30.0218 107.786 29.8888 107.786 29.7248V27.9217C107.786 27.422 107.378 27.0132 106.878 27.0132Z" fill="#FFE07D"/>
<path d="M106.562 29.7247V27.9216C106.562 27.5257 106.819 27.1877 107.174 27.064C107.081 27.0317 106.982 27.0132 106.878 27.0132H105.875C105.376 27.0132 104.967 27.422 104.967 27.9216V29.7247C104.967 29.8888 105.1 30.0217 105.264 30.0217H106.859C106.695 30.0217 106.562 29.8888 106.562 29.7247Z" fill="#FFD064"/>
<path d="M90.6275 10.4486C89.4379 10.3765 88.4507 11.3199 88.4507 12.4939V12.5044C88.4533 13.0323 88.8957 13.4532 89.4237 13.4532H91.5763C92.0867 13.4532 92.5787 13.0583 92.5468 12.3935C92.4973 11.3597 91.6607 10.5111 90.6275 10.4486Z" fill="#405169"/>
<path d="M90.3068 12.5044C90.3068 12.5009 90.3068 12.4975 90.3068 12.4939C90.3068 11.6978 90.7611 11.0083 91.4242 10.669C91.1815 10.5447 90.9125 10.4659 90.6275 10.4486C89.4379 10.3765 88.4507 11.3199 88.4507 12.4939V12.5044C88.4533 13.0323 88.8957 13.4532 89.4237 13.4532H91.2798C90.7518 13.4532 90.3095 13.0323 90.3068 12.5044Z" fill="#405169"/>
<path d="M102.271 25.7236C100.12 27.491 96.6235 29.4691 92.8459 30.6865C91.3486 31.1691 89.6891 31.1814 88.1536 30.6865C84.3847 29.4719 80.8892 27.4982 78.7291 25.7236C78.5224 26.3412 78.3321 26.8784 78.1737 27.3119C77.9015 28.0566 78.136 28.8936 78.7593 29.3835C82.2129 32.0979 85.8582 33.5809 88.1536 34.3207C88.9116 34.565 89.7034 34.6872 90.4997 34.6872C91.2962 34.6872 92.0878 34.565 92.8459 34.3207C95.1412 33.5809 98.7866 32.0979 102.24 29.3835C102.863 28.8936 103.098 28.0566 102.826 27.3119C102.667 26.8784 102.477 26.3411 102.271 25.7236Z" fill="#F9BD33"/>
<path d="M81.6627 27.7512C80.5346 27.0809 79.5381 26.3883 78.7289 25.7235C78.5222 26.3412 78.3321 26.8784 78.1736 27.3119C77.9014 28.0565 78.1359 28.8936 78.7592 29.3835C79.4106 29.8954 80.0688 30.3635 80.7235 30.7912C81.0288 29.8456 81.3453 28.827 81.6627 27.7512Z" fill="#FFD064"/>
</svg>
