<svg width="135" height="47" viewBox="0 0 135 47" fill="none" xmlns="http://www.w3.org/2000/svg">
<path d="M7.68 40.216C6.384 40.216 5.136 40.048 3.936 39.712C2.752 39.36 1.768 38.872 0.984 38.248L2.184 35.56C3.832 36.712 5.672 37.288 7.704 37.288C8.792 37.288 9.624 37.12 10.2 36.784C10.792 36.432 11.088 35.944 11.088 35.32C11.088 34.776 10.816 34.352 10.272 34.048C9.744 33.728 8.808 33.424 7.464 33.136C5.96 32.832 4.76 32.464 3.864 32.032C2.984 31.584 2.336 31.048 1.92 30.424C1.52 29.784 1.32 28.992 1.32 28.048C1.32 27.024 1.6 26.104 2.16 25.288C2.736 24.472 3.536 23.84 4.56 23.392C5.584 22.928 6.768 22.696 8.112 22.696C9.328 22.696 10.496 22.872 11.616 23.224C12.736 23.576 13.632 24.056 14.304 24.664L13.104 27.352C11.6 26.2 9.944 25.624 8.136 25.624C7.176 25.624 6.408 25.816 5.832 26.2C5.256 26.584 4.968 27.104 4.968 27.76C4.968 28.144 5.072 28.464 5.28 28.72C5.504 28.976 5.872 29.208 6.384 29.416C6.896 29.608 7.624 29.8 8.568 29.992C10.76 30.472 12.336 31.096 13.296 31.864C14.272 32.632 14.76 33.68 14.76 35.008C14.76 36.608 14.136 37.88 12.888 38.824C11.64 39.752 9.904 40.216 7.68 40.216ZM32.1174 27.52C33.5094 27.52 34.5414 27.944 35.2134 28.792C35.9014 29.624 36.2454 30.904 36.2454 32.632V40H32.6214V32.752C32.6214 31.904 32.4854 31.296 32.2134 30.928C31.9414 30.544 31.4934 30.352 30.8694 30.352C30.1334 30.352 29.5654 30.608 29.1654 31.12C28.7654 31.632 28.5654 32.352 28.5654 33.28V40H24.9414V32.752C24.9414 31.92 24.7974 31.312 24.5094 30.928C24.2374 30.544 23.7974 30.352 23.1894 30.352C22.4534 30.352 21.8774 30.608 21.4614 31.12C21.0614 31.632 20.8614 32.352 20.8614 33.28V40H17.2374V31.312C17.2374 30.016 17.1734 28.856 17.0454 27.832H20.4534L20.6694 29.656C21.0374 28.968 21.5494 28.44 22.2054 28.072C22.8774 27.704 23.6454 27.52 24.5094 27.52C26.3174 27.52 27.5174 28.272 28.1094 29.776C28.5094 29.088 29.0614 28.544 29.7654 28.144C30.4854 27.728 31.2694 27.52 32.1174 27.52ZM51.2966 27.832V40H47.7206V38.2C47.3526 38.824 46.8326 39.312 46.1606 39.664C45.4886 40.016 44.7286 40.192 43.8806 40.192C42.8246 40.192 41.8886 39.936 41.0726 39.424C40.2726 38.912 39.6406 38.184 39.1766 37.24C38.7286 36.28 38.5046 35.176 38.5046 33.928C38.5046 32.68 38.7286 31.568 39.1766 30.592C39.6406 29.616 40.2806 28.864 41.0966 28.336C41.9126 27.792 42.8406 27.52 43.8806 27.52C44.7286 27.52 45.4886 27.704 46.1606 28.072C46.8326 28.44 47.3526 28.936 47.7206 29.56V27.832H51.2966ZM44.9366 37.432C45.8326 37.432 46.5206 37.128 47.0006 36.52C47.4806 35.912 47.7206 35.032 47.7206 33.88C47.7206 32.728 47.4806 31.848 47.0006 31.24C46.5206 30.616 45.8326 30.304 44.9366 30.304C44.0406 30.304 43.3446 30.624 42.8486 31.264C42.3526 31.904 42.1046 32.792 42.1046 33.928C42.1046 35.064 42.3446 35.936 42.8246 36.544C43.3206 37.136 44.0246 37.432 44.9366 37.432ZM61.3018 27.544C61.8138 27.544 62.2458 27.624 62.5978 27.784L62.5738 31.096C61.9818 30.824 61.3898 30.688 60.7978 30.688C59.8378 30.688 59.1018 30.952 58.5898 31.48C58.0938 31.992 57.8458 32.712 57.8458 33.64V40H54.2218V31.312C54.2218 30.016 54.1578 28.856 54.0298 27.832H57.4378L57.6778 29.92C57.9818 29.152 58.4538 28.568 59.0938 28.168C59.7498 27.752 60.4858 27.544 61.3018 27.544ZM69.8209 30.544V35.272C69.8209 35.944 69.9969 36.44 70.3489 36.76C70.7009 37.064 71.1569 37.216 71.7169 37.216C72.0689 37.216 72.4689 37.16 72.9169 37.048V39.856C72.3409 40.08 71.6449 40.192 70.8289 40.192C69.3249 40.192 68.1729 39.768 67.3729 38.92C66.5889 38.072 66.1969 36.88 66.1969 35.344V30.544H63.8929V27.832H66.1969V24.976L69.8209 23.8V27.832H72.9169V30.544H69.8209Z" fill="#477B9E"/>
<path d="M78.9525 25.96H73.6005V22.912H88.0965V25.96H82.7445V40H78.9525V25.96ZM99.5409 27.832V40H96.0129V38.224C95.6289 38.864 95.1249 39.352 94.5009 39.688C93.8769 40.024 93.1729 40.192 92.3889 40.192C90.8689 40.192 89.7329 39.768 88.9809 38.92C88.2289 38.072 87.8529 36.792 87.8529 35.08V27.832H91.4769V35.152C91.4769 36.624 92.1089 37.36 93.3729 37.36C94.1249 37.36 94.7329 37.104 95.1969 36.592C95.6609 36.08 95.8929 35.408 95.8929 34.576V27.832H99.5409ZM107.04 30.544V35.272C107.04 35.944 107.216 36.44 107.568 36.76C107.92 37.064 108.376 37.216 108.936 37.216C109.288 37.216 109.688 37.16 110.136 37.048V39.856C109.56 40.08 108.864 40.192 108.048 40.192C106.544 40.192 105.392 39.768 104.592 38.92C103.808 38.072 103.416 36.88 103.416 35.344V30.544H101.112V27.832H103.416V24.976L107.04 23.8V27.832H110.136V30.544H107.04ZM117.803 40.192C116.507 40.192 115.371 39.936 114.395 39.424C113.435 38.912 112.691 38.176 112.163 37.216C111.651 36.256 111.395 35.136 111.395 33.856C111.395 32.576 111.651 31.456 112.163 30.496C112.691 29.536 113.435 28.8 114.395 28.288C115.371 27.776 116.507 27.52 117.803 27.52C119.083 27.52 120.203 27.776 121.163 28.288C122.123 28.8 122.859 29.536 123.371 30.496C123.899 31.456 124.163 32.576 124.163 33.856C124.163 35.136 123.899 36.256 123.371 37.216C122.859 38.176 122.123 38.912 121.163 39.424C120.203 39.936 119.083 40.192 117.803 40.192ZM117.803 37.432C118.699 37.432 119.379 37.136 119.843 36.544C120.323 35.952 120.563 35.056 120.563 33.856C120.563 32.672 120.323 31.784 119.843 31.192C119.379 30.584 118.699 30.28 117.803 30.28C116.891 30.28 116.195 30.584 115.715 31.192C115.235 31.784 114.995 32.672 114.995 33.856C114.995 36.24 115.931 37.432 117.803 37.432ZM133.56 27.544C134.072 27.544 134.504 27.624 134.856 27.784L134.832 31.096C134.24 30.824 133.648 30.688 133.056 30.688C132.096 30.688 131.36 30.952 130.848 31.48C130.352 31.992 130.104 32.712 130.104 33.64V40H126.48V31.312C126.48 30.016 126.416 28.856 126.288 27.832H129.696L129.936 29.92C130.24 29.152 130.712 28.568 131.352 28.168C132.008 27.752 132.744 27.544 133.56 27.544Z" fill="#F9BD33"/>
<path d="M51.3868 18.8221L51.6697 19.4065C51.6697 19.4065 56.1565 23.0498 59.9996 23.0498C63.8427 23.0498 68.3498 19.4065 68.3498 19.4065L68.6122 18.8221H68.6122C68.1809 17.533 67.6512 15.7632 67.2796 13.8939L66.4584 13.4321H53.4203L52.7194 13.8937C52.3478 15.763 51.818 17.5329 51.3867 18.8221H51.3868Z" fill="#405169"/>
<path d="M55.1975 13.6305L55.4987 13.4321H53.4203L52.7194 13.8937C52.3478 15.763 51.818 17.5329 51.3867 18.8221H51.3868L51.6697 19.4065C51.6697 19.4065 52.3603 19.9671 53.4315 20.6486C54.0592 18.5516 54.6994 16.1359 55.1975 13.6305Z" fill="#294B64"/>
<path d="M74.7105 9.46136L60.7496 4.7431C60.2634 4.5788 59.7366 4.5788 59.2504 4.7431L45.2894 9.46136C44.929 9.58317 44.8972 10.0806 45.2391 10.2473L58.9739 16.9435C59.6215 17.2592 60.3784 17.2592 61.026 16.9435L74.7608 10.2473C75.1027 10.0806 75.071 9.58317 74.7105 9.46136Z" fill="#477B9E"/>
<path d="M49.4645 10.2466C49.1225 10.0799 49.1543 9.58248 49.5148 9.46067L62.1126 5.20307L60.7496 4.74241C60.2633 4.57805 59.7365 4.57805 59.2503 4.74241L45.2894 9.46067C44.929 9.58248 44.8972 10.0799 45.2391 10.2466L58.9739 16.9428C59.6215 17.2585 60.3784 17.2585 61.026 16.9428L62.1127 16.413L49.4645 10.2466Z" fill="#405169"/>
<path d="M71.6169 21.319C71.3669 21.319 71.1642 21.1164 71.1642 20.8664V12.4938C71.1642 12.2789 71.019 12.0909 70.8111 12.0366L60.5937 9.34255C60.352 9.2788 60.2077 9.03112 60.2714 8.78936C60.3352 8.5476 60.5827 8.40311 60.8246 8.46704L71.041 11.1608C71.6463 11.3189 72.0697 11.8671 72.0697 12.4938V20.8662C72.0696 21.1164 71.8669 21.319 71.6169 21.319Z" fill="#ECF4FF"/>
<path d="M72.4097 21.8728H70.8247L70.6362 24.8044C70.6206 25.0474 70.8079 25.2533 71.0446 25.2533H72.1898C72.4265 25.2533 72.6138 25.0474 72.5982 24.8044L72.4097 21.8728Z" fill="#FFD064"/>
<path d="M71.6677 24.8044L71.8562 21.8728H70.8247L70.6362 24.8044C70.6206 25.0473 70.8079 25.2532 71.0446 25.2532H72.0761C71.8394 25.2532 71.6521 25.0473 71.6677 24.8044Z" fill="#EBB044"/>
<path d="M71.9838 19.7656H71.2501C70.8845 19.7656 70.5854 20.0647 70.5854 20.4303V21.7497C70.5854 21.8697 70.6828 21.967 70.8028 21.967H72.4312C72.5512 21.967 72.6485 21.8697 72.6485 21.7497V20.4303C72.6485 20.0647 72.3494 19.7656 71.9838 19.7656Z" fill="#FFE07D"/>
<path d="M71.7525 21.7497V20.4303C71.7525 20.1406 71.9406 19.8933 72.2005 19.8028C72.1325 19.7792 72.0598 19.7656 71.9839 19.7656H71.2501C70.8846 19.7656 70.5854 20.0647 70.5854 20.4303V21.7497C70.5854 21.8697 70.6828 21.967 70.8028 21.967H71.9698C71.8497 21.967 71.7525 21.8697 71.7525 21.7497Z" fill="#FFD064"/>
<path d="M60.0933 7.64517C59.2228 7.59243 58.5005 8.28273 58.5005 9.14177V9.14939C58.5024 9.53569 58.8261 9.84366 59.2125 9.84366H60.7875C61.161 9.84366 61.521 9.55468 61.4976 9.06829C61.4614 8.31185 60.8493 7.69093 60.0933 7.64517Z" fill="#405169"/>
<path d="M59.8586 9.14939C59.8586 9.14687 59.8586 9.14435 59.8586 9.14177C59.8586 8.55923 60.191 8.05468 60.6762 7.80642C60.4986 7.71548 60.3018 7.65782 60.0933 7.64517C59.2228 7.59243 58.5005 8.28273 58.5005 9.14177V9.14939C58.5024 9.53569 58.8261 9.84366 59.2125 9.84366H60.5706C60.1842 9.84366 59.8606 9.53569 59.8586 9.14939Z" fill="#405169"/>
<path d="M68.6127 18.822C67.0393 20.1152 64.4807 21.5627 61.7167 22.4534C60.6211 22.8066 59.4068 22.8155 58.2833 22.4534C55.5255 21.5647 52.9679 20.1206 51.3873 18.822C51.236 19.274 51.0968 19.6671 50.9809 19.9842C50.7818 20.5291 50.9533 21.1416 51.4094 21.5001C53.9364 23.4861 56.6038 24.5713 58.2833 25.1126C58.8379 25.2914 59.4173 25.3808 60 25.3808C60.5827 25.3808 61.162 25.2914 61.7166 25.1126C63.3962 24.5713 66.0635 23.4861 68.5905 21.5001C69.0466 21.1416 69.2182 20.5291 69.019 19.9842C68.9031 19.667 68.764 19.2739 68.6127 18.822Z" fill="#F9BD33"/>
<path d="M53.5334 20.3057C52.708 19.8152 51.9789 19.3085 51.3868 18.822C51.2356 19.274 51.0964 19.6671 50.9804 19.9842C50.7813 20.5291 50.9528 21.1416 51.4089 21.5C51.8856 21.8746 52.3672 22.2171 52.8462 22.5301C53.0696 21.8382 53.3012 21.0929 53.5334 20.3057Z" fill="#FFD064"/>
</svg>
