<svg width="51" height="50" viewBox="0 0 51 50" fill="none" xmlns="http://www.w3.org/2000/svg">
<g clip-path="url(#clip0)">
<path d="M49.2393 25.7812V21.875C49.2393 21.2534 48.9923 20.6573 48.5528 20.2177C48.1133 19.7782 47.5171 19.5312 46.8955 19.5312H40.6455C40.0239 19.5312 39.4278 19.7782 38.9882 20.2177C38.5487 20.6573 38.3018 21.2534 38.3018 21.875V17.9688H27.3643V20.8969C27.2266 20.4854 26.9773 20.1204 26.6441 19.8425C26.3109 19.5647 25.907 19.3849 25.4775 19.3234L19.2869 18.4641C18.6713 18.3783 18.0469 18.5406 17.551 18.9153C17.055 19.2899 16.7282 19.8462 16.6424 20.4617L16.1025 24.3305L26.9354 25.8406L27.3643 22.7648V46.875C27.3643 47.4966 27.6112 48.0927 28.0507 48.5323C28.4903 48.9718 29.0864 49.2188 29.708 49.2188H35.958C36.5796 49.2188 37.1758 48.9718 37.6153 48.5323C38.0548 48.0927 38.3018 47.4966 38.3018 46.875C38.3018 47.4966 38.5487 48.0927 38.9882 48.5323C39.4278 48.9718 40.0239 49.2188 40.6455 49.2188H46.8955C47.5171 49.2188 48.1133 48.9718 48.5528 48.5323C48.9923 48.0927 49.2393 47.4966 49.2393 46.875V42.9688H38.3018V41.4062H49.2393V27.3438H38.3018V25.7812H49.2393ZM35.1768 30.4688C35.1768 30.676 35.0944 30.8747 34.9479 31.0212C34.8014 31.1677 34.6027 31.25 34.3955 31.25H31.2705C31.0633 31.25 30.8646 31.1677 30.7181 31.0212C30.5716 30.8747 30.4893 30.676 30.4893 30.4688V20.3125C30.4893 20.1053 30.5716 19.9066 30.7181 19.7601C30.8646 19.6136 31.0633 19.5312 31.2705 19.5312H34.3955C34.6027 19.5312 34.8014 19.6136 34.9479 19.7601C35.0944 19.9066 35.1768 20.1053 35.1768 20.3125V30.4688ZM42.9893 29.6875C42.9893 29.4803 43.0716 29.2816 43.2181 29.1351C43.3646 28.9886 43.5633 28.9062 43.7705 28.9062C43.9777 28.9062 44.1764 28.9886 44.3229 29.1351C44.4694 29.2816 44.5518 29.4803 44.5518 29.6875V39.0625C44.5518 39.2697 44.4694 39.4684 44.3229 39.6149C44.1764 39.7614 43.9777 39.8438 43.7705 39.8438C43.5633 39.8438 43.3646 39.7614 43.2181 39.6149C43.0716 39.4684 42.9893 39.2697 42.9893 39.0625V29.6875Z" fill="#FBBC05"/>
<path d="M15.887 25.875L13.9456 39.8023L24.7792 41.3125L26.7206 27.3852L15.887 25.875Z" fill="#FBBC05"/>
<path d="M13.7299 41.3501L13.1909 45.2196C13.1051 45.8352 13.2674 46.4596 13.6421 46.9556C14.0167 47.4515 14.573 47.7783 15.1885 47.8642L21.3784 48.7275C21.9939 48.8119 22.6177 48.649 23.1134 48.2744C23.609 47.8999 23.9361 47.3442 24.0229 46.729L24.562 42.8603L13.7299 41.3501Z" fill="#FBBC05"/>
<path d="M32.0518 21.0938H33.6143V29.6875H32.0518V21.0938Z" fill="#FBBC05"/>
<path d="M38.3018 12.5C38.3018 11.8784 38.0548 11.2823 37.6153 10.8427C37.1757 10.4032 36.5796 10.1562 35.958 10.1562H29.708C29.0864 10.1562 28.4903 10.4032 28.0507 10.8427C27.6112 11.2823 27.3643 11.8784 27.3643 12.5V16.4062H38.3018V12.5Z" fill="#FBBC05"/>
<path d="M37.5205 22.6563V16.5235C37.5208 16.3771 37.4799 16.2335 37.4026 16.1092C37.3252 15.9849 37.2145 15.8848 37.083 15.8204C34.8859 14.843 32.4444 14.554 30.0799 14.9914C28.5929 12.7517 26.3052 11.1659 23.6861 10.5594C24.5868 9.86039 25.2464 8.89736 25.5728 7.80502C25.8992 6.71267 25.8761 5.54562 25.5066 4.46706C25.1372 3.38851 24.4399 2.45238 23.5123 1.7896C22.5847 1.12681 21.4731 0.770508 20.333 0.770508C19.1929 0.770508 18.0814 1.12681 17.1537 1.7896C16.2261 2.45238 15.5288 3.38851 15.1594 4.46706C14.7899 5.54562 14.7668 6.71267 15.0932 7.80502C15.4196 8.89736 16.0793 9.86039 16.9799 10.5594C14.3603 11.1666 12.0715 12.7514 10.5814 14.9899C8.21812 14.5547 5.77841 14.8447 3.58301 15.8219C3.45152 15.8863 3.34079 15.9864 3.26343 16.1107C3.18608 16.2351 3.14521 16.3786 3.14551 16.525V22.6563C2.52391 22.6563 1.92776 22.9032 1.48823 23.3428C1.04869 23.7823 0.801758 24.3784 0.801758 25V28.125C0.801758 28.7466 1.04869 29.3428 1.48823 29.7823C1.92776 30.2219 2.52391 30.4688 3.14551 30.4688V35.8438C3.14543 35.9673 3.17463 36.089 3.23069 36.199C3.28675 36.309 3.36808 36.4041 3.46802 36.4766C3.56796 36.5491 3.68366 36.5969 3.80564 36.6161C3.92761 36.6352 4.05238 36.6252 4.16973 36.5868C6.80816 35.6637 9.64449 35.4582 12.3884 35.9914C15.1323 36.5245 17.6853 37.7772 19.7861 39.6211C19.9322 39.7643 20.1285 39.8445 20.333 39.8445C20.5375 39.8445 20.7338 39.7643 20.8799 39.6211C22.9916 37.7964 25.5443 36.5563 28.284 36.0241C31.0237 35.4919 33.855 35.6861 36.4963 36.5875C36.6137 36.626 36.7385 36.636 36.8606 36.6168C36.9826 36.5976 37.0984 36.5498 37.1983 36.4772C37.2983 36.4046 37.3796 36.3094 37.4356 36.1992C37.4916 36.0891 37.5207 35.9673 37.5205 35.8438V30.4688C38.1421 30.4688 38.7383 30.2219 39.1778 29.7823C39.6173 29.3428 39.8643 28.7466 39.8643 28.125V25C39.8643 24.3784 39.6173 23.7823 39.1778 23.3428C38.7383 22.9032 38.1421 22.6563 37.5205 22.6563ZM16.4268 6.25004C16.4268 5.47746 16.6559 4.72223 17.0851 4.07985C17.5143 3.43747 18.1244 2.93679 18.8382 2.64114C19.5519 2.34548 20.3373 2.26813 21.0951 2.41885C21.8528 2.56957 22.5488 2.94161 23.0951 3.48791C23.6414 4.03421 24.0135 4.73023 24.1642 5.48797C24.3149 6.24571 24.2376 7.03113 23.9419 7.7449C23.6463 8.45867 23.1456 9.06875 22.5032 9.49797C21.8608 9.92719 21.1056 10.1563 20.333 10.1563C19.2974 10.1551 18.3045 9.7431 17.5722 9.01081C16.8399 8.27851 16.428 7.28566 16.4268 6.25004ZM3.92676 28.9063H3.14551C2.93831 28.9063 2.73959 28.824 2.59308 28.6775C2.44657 28.531 2.36426 28.3322 2.36426 28.125V25C2.36426 24.7928 2.44657 24.5941 2.59308 24.4476C2.73959 24.3011 2.93831 24.2188 3.14551 24.2188H3.92676C4.13396 24.2188 4.33267 24.3011 4.47918 24.4476C4.6257 24.5941 4.70801 24.7928 4.70801 25V28.125C4.70801 28.3322 4.6257 28.531 4.47918 28.6775C4.33267 28.824 4.13396 28.9063 3.92676 28.9063ZM19.5518 37.4219C17.4343 35.8962 14.9999 34.8677 12.4299 34.4129C9.85995 33.9582 7.22049 34.0889 4.70801 34.7954V30.325C5.1634 30.164 5.55794 29.8663 5.83763 29.4725C6.11732 29.0787 6.26851 28.6081 6.27051 28.125V25C6.26851 24.517 6.11732 24.0464 5.83763 23.6526C5.55794 23.2588 5.1634 22.961 4.70801 22.8V17.0313C9.12363 15.2102 15.4807 17.6094 19.5518 19.9782V37.4219ZM20.333 18.6172C17.8156 17.1404 15.1017 16.0278 12.2721 15.3125C13.2947 13.993 15.7236 11.7188 20.333 11.7188C24.9814 11.7188 27.3877 13.9899 28.3986 15.3125C25.5675 16.0279 22.8519 17.1408 20.333 18.618V18.6172ZM35.958 34.7954C33.4455 34.0893 30.8061 33.9589 28.2362 34.4136C25.6663 34.8683 23.232 35.8966 21.1143 37.4219V19.9743C25.183 17.6047 31.5596 15.2086 35.958 17.0274V22.8C35.5026 22.961 35.1081 23.2588 34.8284 23.6526C34.5487 24.0464 34.3975 24.517 34.3955 25V28.125C34.3975 28.6081 34.5487 29.0787 34.8284 29.4725C35.1081 29.8663 35.5026 30.164 35.958 30.325V34.7954ZM38.3018 28.125C38.3018 28.3322 38.2194 28.531 38.0729 28.6775C37.9264 28.824 37.7277 28.9063 37.5205 28.9063H36.7393C36.5321 28.9063 36.3333 28.824 36.1868 28.6775C36.0403 28.531 35.958 28.3322 35.958 28.125V25C35.958 24.7928 36.0403 24.5941 36.1868 24.4476C36.3333 24.3011 36.5321 24.2188 36.7393 24.2188H37.5205C37.7277 24.2188 37.9264 24.3011 38.0729 24.4476C38.2194 24.5941 38.3018 24.7928 38.3018 25V28.125Z" fill="#405169"/>
</g>
<defs>
<clipPath id="clip0">
<rect width="50" height="50" fill="white" transform="translate(0.0205078)"/>
</clipPath>
</defs>
</svg>
