<svg width="50" height="50" viewBox="0 0 50 50" fill="none" xmlns="http://www.w3.org/2000/svg">
<path d="M46.875 16.4062H12.5C11.8784 16.4063 11.2823 16.6532 10.8427 17.0927C10.4032 17.5323 10.1562 18.1284 10.1562 18.75V37.5C10.1562 38.1216 10.4032 38.7177 10.8427 39.1573C11.2823 39.5968 11.8784 39.8438 12.5 39.8438H46.875C47.4966 39.8438 48.0927 39.5968 48.5323 39.1573C48.9718 38.7177 49.2188 38.1216 49.2188 37.5V18.75C49.2188 18.1284 48.9718 17.5323 48.5323 17.0927C48.0927 16.6532 47.4966 16.4063 46.875 16.4062ZM29.6875 35.9375C29.3785 35.9375 29.0764 35.8459 28.8194 35.6742C28.5625 35.5025 28.3622 35.2585 28.2439 34.9729C28.1257 34.6874 28.0947 34.3733 28.155 34.0702C28.2153 33.7671 28.3641 33.4887 28.5826 33.2701C28.8012 33.0516 29.0796 32.9028 29.3827 32.8425C29.6858 32.7822 29.9999 32.8132 30.2854 32.9314C30.571 33.0497 30.815 33.25 30.9867 33.5069C31.1584 33.7639 31.25 34.066 31.25 34.375C31.25 34.7894 31.0854 35.1868 30.7924 35.4799C30.4993 35.7729 30.1019 35.9375 29.6875 35.9375Z" fill="#AD7F2B"/>
<path d="M33.4226 41.4062H25.9523L24.7273 46.3062C24.6408 46.6518 24.6343 47.0126 24.7082 47.3611C24.7821 47.7096 24.9344 48.0367 25.1537 48.3175C25.3729 48.5982 25.6533 48.8253 25.9735 48.9815C26.2937 49.1377 26.6453 49.2188 27.0015 49.2188H32.3734C32.7296 49.2188 33.0812 49.1377 33.4014 48.9815C33.7216 48.8253 34.0019 48.5982 34.2212 48.3175C34.4404 48.0367 34.5928 47.7096 34.6667 47.3611C34.7406 47.0126 34.734 46.6518 34.6476 46.3062L33.4226 41.4062Z" fill="#AD7F2B"/>
<path d="M28.9063 14.844C28.9065 12.4332 28.2869 10.0628 27.107 7.96048C25.9272 5.85813 24.2266 4.09441 22.1687 2.83866C20.1108 1.58291 17.7646 0.877303 15.3554 0.789586C12.9462 0.70187 10.5549 1.23499 8.41114 2.33776C6.26735 3.44053 4.44306 5.07592 3.11344 7.0869C1.78382 9.09787 0.993509 11.4169 0.818399 13.8213C0.64329 16.2258 1.08926 18.6348 2.11349 20.8172C3.13771 22.9996 4.7058 24.8821 6.66719 26.2838C5.89407 27.2502 5.47158 28.4502 5.46875 29.6877V37.5002C5.46875 38.1218 5.71568 38.718 6.15522 39.1575C6.59476 39.5971 7.1909 39.844 7.8125 39.844H21.875C22.4966 39.844 23.0927 39.5971 23.5323 39.1575C23.9718 38.718 24.2188 38.1218 24.2188 37.5002V29.6877C24.2158 28.4443 23.7893 27.239 23.0094 26.2705C24.8312 24.9731 26.3167 23.2593 27.3424 21.2718C28.3681 19.2843 28.9042 17.0806 28.9063 14.844ZM14.8438 2.34399C17.492 2.32954 20.0753 3.16266 22.2162 4.72154C24.357 6.28042 25.943 8.48328 26.7422 11.008C22.3594 11.4612 21.0625 9.12524 21.0078 9.02367C20.9355 8.8822 20.8218 8.76612 20.6819 8.69094C20.5419 8.61575 20.3823 8.58501 20.2245 8.60284C20.0666 8.62066 19.9179 8.6862 19.7983 8.7907C19.6786 8.8952 19.5936 9.0337 19.5547 9.18774C19.1932 10.472 19.3416 11.8462 19.9688 13.0237C12.8672 11.7034 10.9688 6.96899 10.8906 6.75805C10.8362 6.61102 10.7389 6.48375 10.6112 6.39279C10.4835 6.30183 10.3314 6.25139 10.1747 6.24802C10.018 6.24465 9.86385 6.28851 9.73238 6.37389C9.6009 6.45928 9.49816 6.58224 9.4375 6.7268C7.89063 10.3362 4.42188 11.7502 2.61719 12.2502C3.21332 9.44893 4.75259 6.93699 6.97788 5.13401C9.20317 3.33103 11.9797 2.34618 14.8438 2.34399ZM22.6563 29.6877V37.5002C22.6563 37.7074 22.5739 37.9061 22.4274 38.0527C22.2809 38.1992 22.0822 38.2815 21.875 38.2815H19.5313V34.3752C19.5313 34.168 19.4489 33.9693 19.3024 33.8228C19.1559 33.6763 18.9572 33.594 18.75 33.594C18.5428 33.594 18.3441 33.6763 18.1976 33.8228C18.0511 33.9693 17.9688 34.168 17.9688 34.3752V38.2815H11.7188V34.3752C11.7188 34.168 11.6364 33.9693 11.4899 33.8228C11.3434 33.6763 11.1447 33.594 10.9375 33.594C10.7303 33.594 10.5316 33.6763 10.3851 33.8228C10.2386 33.9693 10.1563 34.168 10.1563 34.3752V38.2815H7.8125C7.6053 38.2815 7.40659 38.1992 7.26008 38.0527C7.11356 37.9061 7.03125 37.7074 7.03125 37.5002V29.6877C7.03309 28.748 7.37308 27.8404 7.98907 27.1307C10.0838 28.2975 12.4423 28.9088 14.84 28.9065C17.2378 28.9042 19.595 28.2883 21.6875 27.1174C22.3104 27.829 22.6545 28.7421 22.6563 29.6877ZM14.8438 27.344C13.2014 27.347 11.5746 27.0257 10.0567 26.3986C8.53876 25.7714 7.15959 24.8508 5.99826 23.6895C4.83694 22.5281 3.91631 21.149 3.28918 19.6311C2.66205 18.1131 2.34077 16.4863 2.34375 14.844C2.34375 14.5315 2.35157 14.2268 2.375 13.9221C3.99219 13.5705 7.91407 12.3674 10.1719 8.70336C14.0242 14.6549 21.7969 14.8127 21.875 14.844C22.0419 14.8427 22.204 14.788 22.3376 14.6879C22.4711 14.5877 22.5691 14.4475 22.6172 14.2876C22.6652 14.1278 22.6608 13.9567 22.6046 13.7996C22.5483 13.6424 22.4432 13.5074 22.3047 13.4143C21.6149 12.8798 21.1474 12.1089 20.9922 11.2502C22.125 12.094 24.0391 12.8987 27.1172 12.5393C27.2707 13.2979 27.3466 14.0701 27.3438 14.844C27.3394 18.1579 26.0211 21.3348 23.6778 23.678C21.3345 26.0213 18.1576 27.3396 14.8438 27.344Z" fill="#333333"/>
</svg>
