<svg width="50" height="50" viewBox="0 0 50 50" fill="none" xmlns="http://www.w3.org/2000/svg">
<path d="M46.875 16.4062H12.5C11.8784 16.4063 11.2823 16.6532 10.8427 17.0927C10.4032 17.5323 10.1562 18.1284 10.1562 18.75V37.5C10.1562 38.1216 10.4032 38.7177 10.8427 39.1573C11.2823 39.5968 11.8784 39.8438 12.5 39.8438H46.875C47.4966 39.8438 48.0927 39.5968 48.5323 39.1573C48.9718 38.7177 49.2188 38.1216 49.2188 37.5V18.75C49.2188 18.1284 48.9718 17.5323 48.5323 17.0927C48.0927 16.6532 47.4966 16.4063 46.875 16.4062ZM29.6875 35.9375C29.3785 35.9375 29.0764 35.8459 28.8194 35.6742C28.5625 35.5025 28.3622 35.2585 28.2439 34.9729C28.1257 34.6874 28.0947 34.3733 28.155 34.0702C28.2153 33.7671 28.3641 33.4887 28.5826 33.2701C28.8012 33.0516 29.0796 32.9028 29.3827 32.8425C29.6858 32.7822 29.9999 32.8132 30.2854 32.9314C30.571 33.0497 30.815 33.25 30.9867 33.5069C31.1584 33.7639 31.25 34.066 31.25 34.375C31.25 34.7894 31.0854 35.1868 30.7924 35.4799C30.4993 35.7729 30.1019 35.9375 29.6875 35.9375Z" fill="#FBBC05"/>
<path d="M33.4226 41.4062H25.9523L24.7273 46.3062C24.6408 46.6518 24.6343 47.0126 24.7082 47.3611C24.7821 47.7096 24.9344 48.0367 25.1537 48.3175C25.3729 48.5982 25.6533 48.8253 25.9735 48.9815C26.2937 49.1377 26.6453 49.2188 27.0015 49.2188H32.3734C32.7296 49.2188 33.0812 49.1377 33.4014 48.9815C33.7216 48.8253 34.0019 48.5982 34.2212 48.3175C34.4404 48.0367 34.5928 47.7096 34.6667 47.3611C34.7406 47.0126 34.734 46.6518 34.6476 46.3062L33.4226 41.4062Z" fill="#FBBC05"/>
<path d="M28.9063 14.8435C28.9065 12.4327 28.2869 10.0623 27.107 7.95999C25.9272 5.85765 24.2266 4.09392 22.1687 2.83817C20.1108 1.58242 17.7646 0.876815 15.3554 0.789098C12.9462 0.701382 10.5549 1.2345 8.41114 2.33727C6.26735 3.44005 4.44306 5.07543 3.11344 7.08641C1.78382 9.09739 0.993509 11.4164 0.818399 13.8208C0.64329 16.2253 1.08926 18.6343 2.11349 20.8167C3.13771 22.9992 4.7058 24.8816 6.66719 26.2833C5.89407 27.2497 5.47158 28.4497 5.46875 29.6872V37.4997C5.46875 38.1213 5.71568 38.7175 6.15522 39.157C6.59476 39.5966 7.1909 39.8435 7.8125 39.8435H21.875C22.4966 39.8435 23.0927 39.5966 23.5323 39.157C23.9718 38.7175 24.2188 38.1213 24.2188 37.4997V29.6872C24.2158 28.4438 23.7893 27.2385 23.0094 26.2701C24.8312 24.9726 26.3167 23.2588 27.3424 21.2713C28.3681 19.2838 28.9042 17.0801 28.9063 14.8435ZM14.8438 2.3435C17.492 2.32905 20.0753 3.16218 22.2162 4.72105C24.357 6.27993 25.943 8.4828 26.7422 11.0076C22.3594 11.4607 21.0625 9.12475 21.0078 9.02318C20.9355 8.88171 20.8218 8.76564 20.6819 8.69045C20.5419 8.61526 20.3823 8.58453 20.2245 8.60235C20.0666 8.62017 19.9179 8.68571 19.7983 8.79021C19.6786 8.89471 19.5936 9.03321 19.5547 9.18725C19.1932 10.4715 19.3416 11.8457 19.9688 13.0232C12.8672 11.7029 10.9688 6.9685 10.8906 6.75756C10.8362 6.61053 10.7389 6.48326 10.6112 6.3923C10.4835 6.30134 10.3314 6.2509 10.1747 6.24753C10.018 6.24416 9.86385 6.28802 9.73238 6.3734C9.6009 6.45879 9.49816 6.58175 9.4375 6.72631C7.89063 10.3357 4.42188 11.7497 2.61719 12.2497C3.21332 9.44845 4.75259 6.9365 6.97788 5.13352C9.20317 3.33054 11.9797 2.3457 14.8438 2.3435ZM22.6563 29.6872V37.4997C22.6563 37.7069 22.5739 37.9057 22.4274 38.0522C22.2809 38.1987 22.0822 38.281 21.875 38.281H19.5313V34.3747C19.5313 34.1675 19.4489 33.9688 19.3024 33.8223C19.1559 33.6758 18.9572 33.5935 18.75 33.5935C18.5428 33.5935 18.3441 33.6758 18.1976 33.8223C18.0511 33.9688 17.9688 34.1675 17.9688 34.3747V38.281H11.7188V34.3747C11.7188 34.1675 11.6364 33.9688 11.4899 33.8223C11.3434 33.6758 11.1447 33.5935 10.9375 33.5935C10.7303 33.5935 10.5316 33.6758 10.3851 33.8223C10.2386 33.9688 10.1563 34.1675 10.1563 34.3747V38.281H7.8125C7.6053 38.281 7.40659 38.1987 7.26008 38.0522C7.11356 37.9057 7.03125 37.7069 7.03125 37.4997V29.6872C7.03309 28.7475 7.37308 27.8399 7.98907 27.1302C10.0838 28.297 12.4423 28.9083 14.84 28.906C17.2378 28.9037 19.595 28.2878 21.6875 27.1169C22.3104 27.8285 22.6545 28.7416 22.6563 29.6872ZM14.8438 27.3435C13.2014 27.3465 11.5746 27.0252 10.0567 26.3981C8.53876 25.7709 7.15959 24.8503 5.99826 23.689C4.83694 22.5277 3.91631 21.1485 3.28918 19.6306C2.66205 18.1127 2.34077 16.4859 2.34375 14.8435C2.34375 14.531 2.35157 14.2263 2.375 13.9216C3.99219 13.5701 7.91407 12.3669 10.1719 8.70287C14.0242 14.6544 21.7969 14.8122 21.875 14.8435C22.0419 14.8422 22.204 14.7875 22.3376 14.6874C22.4711 14.5873 22.5691 14.447 22.6172 14.2871C22.6652 14.1273 22.6608 13.9562 22.6046 13.7991C22.5483 13.6419 22.4432 13.5069 22.3047 13.4138C21.6149 12.8793 21.1474 12.1084 20.9922 11.2497C22.125 12.0935 24.0391 12.8982 27.1172 12.5388C27.2707 13.2974 27.3466 14.0696 27.3438 14.8435C27.3394 18.1574 26.0211 21.3343 23.6778 23.6775C21.3345 26.0208 18.1576 27.3392 14.8438 27.3435Z" fill="#405169"/>
</svg>
