<svg width="40" height="40" viewBox="0 0 40 40" fill="none" xmlns="http://www.w3.org/2000/svg">
<g clip-path="url(#clip0)">
<path d="M38.3203 32.0312H37.1466C37.2972 31.7377 37.3828 31.4057 37.3828 31.0538L37.382 10.7418C37.382 9.5572 36.4182 8.59337 35.2336 8.59337H32.0703V7.87775C32.0703 7.31345 31.6112 6.85431 31.0469 6.85431H30.0771V3.91408C30.0771 3.58368 29.9164 3.27204 29.6473 3.08033C29.3782 2.88869 29.0312 2.83868 28.7188 2.94673L26.8732 3.58494C26.5674 3.69072 26.4052 4.02431 26.5109 4.33017C26.6167 4.63595 26.9501 4.79853 27.2562 4.69243L28.9052 4.1222V18.2143L20.5859 21.0913V6.99915L24.8935 5.50954C25.1994 5.40376 25.3615 5.07017 25.2558 4.76431C25.15 4.45853 24.8167 4.29611 24.5105 4.40204L20 5.96181L11.2812 2.94673C10.9688 2.83861 10.6218 2.88869 10.3527 3.08033C10.0836 3.27204 9.92289 3.58368 9.92289 3.91408V6.85423H8.95312C8.38875 6.85423 7.92969 7.31337 7.92969 7.87767V8.59408H4.76562C3.58094 8.59408 2.61719 9.5579 2.61719 10.7425L2.61727 12.8262C2.61727 13.1499 2.87961 13.4121 3.2032 13.4121C3.5268 13.4121 3.78914 13.1498 3.78914 12.8262L3.78906 10.7426C3.78906 10.2041 4.22711 9.76603 4.76562 9.76603H7.92969V10.9379H5.54688C5.39148 10.9379 5.24242 10.9996 5.13258 11.1095C5.02266 11.2194 4.96094 11.3685 4.96094 11.5238L4.96172 30.2734C4.96172 30.597 5.22406 30.8593 5.54766 30.8593L34.4531 30.8585C34.6085 30.8585 34.7576 30.7968 34.8675 30.6869C34.9773 30.577 35.0391 30.428 35.0391 30.2726L35.0383 11.5231C35.0383 11.1994 34.7759 10.9371 34.4523 10.9371H32.0703V9.76525H35.2336C35.7721 9.76525 36.2102 10.2033 36.2102 10.7418L36.2109 31.0538C36.2109 31.5924 35.7729 32.0304 35.2344 32.0304L4.76641 32.0312C4.22789 32.0312 3.78984 31.5931 3.78984 31.0546L3.7893 15.3335C3.7893 15.0099 3.52695 14.7476 3.20336 14.7476C2.87977 14.7476 2.61742 15.0099 2.61742 15.3335L2.61797 31.0546C2.61797 31.4062 2.70336 31.738 2.85375 32.0312H1.67969C0.753516 32.0312 0 32.7847 0 33.7109V35.4296C0 36.3559 0.753516 37.1094 1.67969 37.1094H24.9751C25.2987 37.1094 25.561 36.8471 25.561 36.5234C25.561 36.1998 25.2987 35.9375 24.9751 35.9375H1.67969C1.39969 35.9375 1.17188 35.7097 1.17188 35.4297V33.7109C1.17188 33.4309 1.39969 33.2031 1.67969 33.2031H16.0547V33.6149C16.0547 34.4217 16.7112 35.0782 17.518 35.0782H22.482C23.2889 35.0782 23.9453 34.4218 23.9453 33.6149V33.2031H38.3203C38.6003 33.2031 38.8281 33.4309 38.8281 33.7109V35.4297C38.8281 35.7097 38.6003 35.9375 38.3203 35.9375H27.5332C27.2095 35.9375 26.9473 36.1998 26.9473 36.5234C26.9473 36.8471 27.2095 37.1094 27.5332 37.1094H38.3203C39.2465 37.1094 40 36.3559 40 35.4297V33.7109C40 32.7847 39.2465 32.0312 38.3203 32.0312ZM29.3882 19.2872C29.8002 19.1446 30.0771 18.7559 30.0771 18.3199V8.02619H30.8984V21.3279H23.4872L29.3882 19.2872ZM11.0948 4.1222L19.4141 6.99915V21.0913L11.0948 18.2143V4.1222ZM9.10156 8.02619H9.92289V18.32C9.92289 18.756 10.1998 19.1447 10.612 19.2874L16.5128 21.328H9.10156V8.02619ZM33.8664 12.109L33.8672 29.6867L6.13352 29.6874L6.13281 12.1098H7.92969V21.4763C7.92969 22.0406 8.38875 22.4998 8.95312 22.4998H31.0469C31.6112 22.4998 32.0703 22.0406 32.0703 21.4763V12.109H33.8664ZM22.7734 33.6148C22.7734 33.7755 22.6427 33.9063 22.482 33.9063H17.518C17.3573 33.9063 17.2266 33.7755 17.2266 33.6148V33.2031H22.7734V33.6148Z" fill="white"/>
<path d="M27.6961 24.1709H12.3037C11.9801 24.1709 11.7178 24.4332 11.7178 24.7568C11.7178 25.0805 11.9801 25.3428 12.3037 25.3428H27.6961C28.0198 25.3428 28.2821 25.0805 28.2821 24.7568C28.2821 24.4332 28.0197 24.1709 27.6961 24.1709Z" fill="#FBBC05"/>
<path d="M22.2861 26.6562H12.3037C11.9801 26.6562 11.7178 26.9185 11.7178 27.2422C11.7178 27.5659 11.9801 27.8281 12.3037 27.8281H22.2861C22.6097 27.8281 22.872 27.5659 22.872 27.2422C22.872 26.9185 22.6097 26.6562 22.2861 26.6562Z" fill="#FBBC05"/>
</g>
<defs>
<clipPath id="clip0">
<rect width="40" height="40" fill="white"/>
</clipPath>
</defs>
</svg>
