<svg width="41" height="40" viewBox="0 0 41 40" fill="none" xmlns="http://www.w3.org/2000/svg">
<g clip-path="url(#clip0)">
<path d="M38.3408 32.0312H37.1671C37.3177 31.7377 37.4033 31.4057 37.4033 31.0538L37.4025 10.7418C37.4025 9.5572 36.4387 8.59337 35.2541 8.59337H32.0908V7.87775C32.0908 7.31345 31.6318 6.85431 31.0674 6.85431H30.0976V3.91408C30.0976 3.58368 29.9369 3.27204 29.6679 3.08033C29.3987 2.88869 29.0517 2.83868 28.7393 2.94673L26.8937 3.58494C26.5879 3.69072 26.4257 4.02431 26.5314 4.33017C26.6372 4.63595 26.9706 4.79853 27.2767 4.69243L28.9257 4.1222V18.2143L20.6064 21.0913V6.99915L24.914 5.50954C25.2199 5.40376 25.382 5.07017 25.2763 4.76431C25.1705 4.45853 24.8372 4.29611 24.5311 4.40204L20.0205 5.96181L11.3017 2.94673C10.9893 2.83861 10.6423 2.88869 10.3732 3.08033C10.1041 3.27204 9.9434 3.58368 9.9434 3.91408V6.85423H8.97363C8.40926 6.85423 7.9502 7.31337 7.9502 7.87767V8.59408H4.78613C3.60145 8.59408 2.6377 9.5579 2.6377 10.7425L2.63777 12.8262C2.63777 13.1499 2.90012 13.4121 3.22371 13.4121C3.5473 13.4121 3.80965 13.1498 3.80965 12.8262L3.80957 10.7426C3.80957 10.2041 4.24762 9.76603 4.78613 9.76603H7.9502V10.9379H5.56738C5.41199 10.9379 5.26293 10.9996 5.15309 11.1095C5.04316 11.2194 4.98145 11.3685 4.98145 11.5238L4.98223 30.2734C4.98223 30.597 5.24457 30.8593 5.56816 30.8593L34.4736 30.8585C34.629 30.8585 34.7781 30.7968 34.888 30.6869C34.9979 30.577 35.0596 30.428 35.0596 30.2726L35.0588 11.5231C35.0588 11.1994 34.7964 10.9371 34.4729 10.9371H32.0908V9.76525H35.2541C35.7926 9.76525 36.2307 10.2033 36.2307 10.7418L36.2314 31.0538C36.2314 31.5924 35.7934 32.0304 35.2549 32.0304L4.78691 32.0312C4.2484 32.0312 3.81035 31.5931 3.81035 31.0546L3.8098 15.3335C3.8098 15.0099 3.54746 14.7476 3.22387 14.7476C2.90027 14.7476 2.63793 15.0099 2.63793 15.3335L2.63848 31.0546C2.63848 31.4062 2.72387 31.738 2.87426 32.0312H1.7002C0.774023 32.0312 0.0205078 32.7847 0.0205078 33.7109V35.4296C0.0205078 36.3559 0.774023 37.1094 1.7002 37.1094H24.9956C25.3193 37.1094 25.5815 36.8471 25.5815 36.5234C25.5815 36.1998 25.3193 35.9375 24.9956 35.9375H1.7002C1.4202 35.9375 1.19238 35.7097 1.19238 35.4297V33.7109C1.19238 33.4309 1.4202 33.2031 1.7002 33.2031H16.0752V33.6149C16.0752 34.4217 16.7317 35.0782 17.5386 35.0782H22.5025C23.3094 35.0782 23.9658 34.4218 23.9658 33.6149V33.2031H38.3408C38.6208 33.2031 38.8486 33.4309 38.8486 33.7109V35.4297C38.8486 35.7097 38.6208 35.9375 38.3408 35.9375H27.5537C27.23 35.9375 26.9678 36.1998 26.9678 36.5234C26.9678 36.8471 27.23 37.1094 27.5537 37.1094H38.3408C39.267 37.1094 40.0205 36.3559 40.0205 35.4297V33.7109C40.0205 32.7847 39.267 32.0312 38.3408 32.0312ZM29.4087 19.2872C29.8207 19.1446 30.0976 18.7559 30.0976 18.3199V8.02619H30.9189V21.3279H23.5077L29.4087 19.2872ZM11.1153 4.1222L19.4346 6.99915V21.0913L11.1153 18.2143V4.1222ZM9.12207 8.02619H9.9434V18.32C9.9434 18.756 10.2203 19.1447 10.6325 19.2874L16.5333 21.328H9.12207V8.02619ZM33.8869 12.109L33.8877 29.6867L6.15402 29.6874L6.15332 12.1098H7.9502V21.4763C7.9502 22.0406 8.40926 22.4998 8.97363 22.4998H31.0674C31.6318 22.4998 32.0908 22.0406 32.0908 21.4763V12.109H33.8869ZM22.7939 33.6148C22.7939 33.7755 22.6632 33.9063 22.5025 33.9063H17.5386C17.3779 33.9063 17.2471 33.7755 17.2471 33.6148V33.2031H22.7939V33.6148Z" fill="#4285F4"/>
<path d="M27.7166 24.1709H12.3242C12.0006 24.1709 11.7383 24.4332 11.7383 24.7568C11.7383 25.0805 12.0006 25.3428 12.3242 25.3428H27.7166C28.0403 25.3428 28.3026 25.0805 28.3026 24.7568C28.3026 24.4332 28.0402 24.1709 27.7166 24.1709Z" fill="#FBBC05"/>
<path d="M22.3066 26.6565H12.3242C12.0006 26.6565 11.7383 26.9188 11.7383 27.2424C11.7383 27.5661 12.0006 27.8284 12.3242 27.8284H22.3066C22.6302 27.8284 22.8925 27.5661 22.8925 27.2424C22.8925 26.9188 22.6302 26.6565 22.3066 26.6565Z" fill="#FBBC05"/>
</g>
<defs>
<clipPath id="clip0">
<rect width="40" height="40" fill="white" transform="translate(0.0205078)"/>
</clipPath>
</defs>
</svg>
